<svg viewBox="0 0 32 32" fill="none" xmlns="http://www.w3.org/2000/svg" xmlns:xlink="http://www.w3.org/1999/xlink" x="0" y="0"><defs><clipPath id="clip1_1754_48118">
<rect width="32" height="32" fill="white" transform="translate(0, 0)"/>
</clipPath></defs><g id="briefcase" clip-path="url(#clip1_1754_48118)">
<path id="Vector_16" d="M27,9h-22c-0.55,0 -1,0.448 -1,1v16c0,0.552 0.45,1 1,1h22c0.55,0 1,-0.448 1,-1v-16c0,-0.552 -0.45,-1 -1,-1z" stroke="#0A65CC" stroke-width="2" stroke-linecap="round" stroke-linejoin="round"/>
<path id="Vector_17" d="M21,9v-2c0,-0.53 -0.21,-1.039 -0.59,-1.414c-0.37,-0.375 -0.88,-0.586 -1.41,-0.586h-6c-0.53,0 -1.04,0.211 -1.41,0.586c-0.38,0.375 -0.59,0.884 -0.59,1.414v2" stroke="#0A65CC" stroke-width="2" stroke-linecap="round" stroke-linejoin="round"/>
<path id="Vector_18" d="M28,15.789c-3.65,2.11 -7.79,3.218 -12,3.211c-4.21,0.007 -8.35,-1.1 -12,-3.21" stroke="#0A65CC" stroke-width="2" stroke-linecap="round" stroke-linejoin="round"/>
<path id="Vector_19" d="M14.5,15h3" stroke="#0A65CC" stroke-width="2" stroke-linecap="round" stroke-linejoin="round"/>
</g></svg>