<svg viewBox="0 0 20 20" fill="none" xmlns="http://www.w3.org/2000/svg" xmlns:xlink="http://www.w3.org/1999/xlink" x="0" y="0"><g id="fi:link">
<path id="Vector_63" d="M8.333,10.833c0.358,0.478 0.815,0.874 1.339,1.161c0.525,0.286 1.104,0.457 1.7,0.499c0.596,0.043 1.194,-0.043 1.754,-0.252c0.56,-0.209 1.068,-0.535 1.491,-0.958l2.5,-2.5c0.759,-0.786 1.179,-1.838 1.169,-2.931c-0.009,-1.092 -0.447,-2.137 -1.22,-2.91c-0.772,-0.772 -1.818,-1.211 -2.91,-1.22c-1.092,-0.01 -2.145,0.41 -2.931,1.169l-1.433,1.425" stroke="#0066FF" stroke-width="1.5" stroke-linecap="round" stroke-linejoin="round"/>
<path id="Vector_64" d="M11.667,9.167c-0.358,-0.478 -0.815,-0.874 -1.339,-1.161c-0.524,-0.286 -1.104,-0.457 -1.7,-0.499c-0.596,-0.043 -1.194,0.043 -1.754,0.252c-0.56,0.209 -1.068,0.535 -1.49,0.958l-2.501,2.5c-0.758,0.786 -1.178,1.838 -1.169,2.931c0.01,1.092 0.448,2.137 1.22,2.91c0.773,0.772 1.818,1.211 2.91,1.22c1.093,0.01 2.145,-0.41 2.931,-1.169l1.425,-1.425" stroke="#0066FF" stroke-width="1.5" stroke-linecap="round" stroke-linejoin="round"/>
</g></svg>