<svg viewBox="0 0 18 18" fill="none" xmlns="http://www.w3.org/2000/svg" xmlns:xlink="http://www.w3.org/1999/xlink" x="0" y="0"><g id="fi:map-pin">
<path id="Vector_41" d="M15.75,7.5c0,5.25 -6.75,9.75 -6.75,9.75c0,0 -6.75,-4.5 -6.75,-9.75c0,-1.79 0.711,-3.51 1.977,-4.77c1.266,-1.27 2.983,-1.98 4.773,-1.98c1.79,0 3.507,0.71 4.773,1.98c1.266,1.26 1.977,2.98 1.977,4.77z" stroke="#939AAD" stroke-width="1.5" stroke-linecap="round" stroke-linejoin="round"/>
<path id="Vector_42" d="M9,9.75c1.243,0 2.25,-1.01 2.25,-2.25c0,-1.24 -1.007,-2.25 -2.25,-2.25c-1.243,0 -2.25,1.01 -2.25,2.25c0,1.24 1.007,2.25 2.25,2.25z" stroke="#939AAD" stroke-width="1.5" stroke-linecap="round" stroke-linejoin="round"/>
</g></svg>