<svg viewBox="0 0 32 32" fill="none" xmlns="http://www.w3.org/2000/svg" xmlns:xlink="http://www.w3.org/1999/xlink" x="0" y="0"><defs><clipPath id="clip2_1754_48118">
<rect width="32" height="32" fill="white" transform="translate(0, 0)"/>
</clipPath></defs><g id="phone-call-duotone 1" clip-path="url(#clip2_1754_48118)">
<path id="Vector_23" opacity="0.2" d="M11.56,15.6c1.04,2.12 2.76,3.83 4.88,4.86c0.16,0.08 0.33,0.11 0.5,0.09c0.17,-0.01 0.34,-0.07 0.48,-0.16l3.13,-2.09c0.14,-0.09 0.3,-0.15 0.46,-0.16c0.17,-0.02 0.34,0.01 0.49,0.07l5.85,2.51c0.2,0.09 0.37,0.23 0.48,0.42c0.1,0.19 0.15,0.41 0.12,0.62c-0.18,1.45 -0.89,2.78 -1.98,3.74c-1.1,0.97 -2.51,1.5 -3.97,1.5c-4.51,0 -8.83,-1.79 -12.02,-4.98c-3.19,-3.19 -4.98,-7.51 -4.98,-12.02c0,-1.46 0.53,-2.87 1.5,-3.96c0.96,-1.1 2.29,-1.81 3.74,-1.99c0.21,-0.03 0.43,0.02 0.62,0.12c0.19,0.11 0.33,0.28 0.42,0.48l2.51,5.86c0.06,0.15 0.09,0.31 0.08,0.48c-0.02,0.16 -0.07,0.32 -0.16,0.46l-2.08,3.18c-0.1,0.14 -0.15,0.3 -0.17,0.48c-0.01,0.17 0.03,0.34 0.1,0.49z" fill="#0A65CC"/>
<path id="Vector_24" d="M11.56,15.6c1.04,2.12 2.76,3.83 4.88,4.86c0.16,0.08 0.33,0.11 0.5,0.09c0.17,-0.01 0.34,-0.07 0.48,-0.16l3.13,-2.09c0.14,-0.09 0.3,-0.15 0.46,-0.16c0.17,-0.02 0.34,0.01 0.49,0.07l5.85,2.51c0.2,0.09 0.37,0.23 0.48,0.42c0.1,0.19 0.15,0.41 0.12,0.62c-0.18,1.45 -0.89,2.78 -1.98,3.74c-1.1,0.97 -2.51,1.5 -3.97,1.5c-4.51,0 -8.83,-1.79 -12.02,-4.98c-3.19,-3.19 -4.98,-7.51 -4.98,-12.02c0,-1.46 0.53,-2.87 1.5,-3.96c0.96,-1.1 2.29,-1.81 3.74,-1.99c0.21,-0.03 0.43,0.02 0.62,0.12c0.19,0.11 0.33,0.28 0.42,0.48l2.51,5.86c0.06,0.15 0.09,0.31 0.08,0.48c-0.02,0.16 -0.07,0.32 -0.16,0.46l-2.08,3.18c-0.1,0.14 -0.15,0.3 -0.17,0.48c-0.01,0.17 0.03,0.34 0.1,0.49z" stroke="#0A65CC" stroke-width="1.8" stroke-linecap="round" stroke-linejoin="round"/>
<path id="Vector_25" d="M19.93,5c1.69,0.46 3.24,1.35 4.48,2.59c1.24,1.24 2.13,2.79 2.59,4.48" stroke="#0A65CC" stroke-width="1.8" stroke-linecap="round" stroke-linejoin="round"/>
<path id="Vector_26" d="M18.89,8.87c1.02,0.27 1.95,0.8 2.69,1.55c0.75,0.74 1.28,1.67 1.56,2.69" stroke="#0A65CC" stroke-width="1.8" stroke-linecap="round" stroke-linejoin="round"/>
</g></svg>