<svg viewBox="0 0 18.7197 18.7197" fill="none" xmlns="http://www.w3.org/2000/svg" xmlns:xlink="http://www.w3.org/1999/xlink" x="0" y="0"><path id="Vector_65" d="M5.67,9.4207c0.778,1.591 2.067,2.874 3.661,3.645c0.117,0.055 0.246,0.079 0.374,0.069c0.129,-0.009 0.253,-0.052 0.36,-0.125l2.347,-1.565c0.104,-0.069 0.223,-0.111 0.347,-0.122c0.125,-0.012 0.25,0.008 0.364,0.057l4.391,1.882c0.15,0.063 0.274,0.173 0.355,0.314c0.081,0.14 0.115,0.303 0.095,0.464c-0.139,1.086 -0.668,2.084 -1.49,2.807c-0.822,0.724 -1.879,1.123 -2.974,1.123c-3.382,0 -6.625,-1.343 -9.016,-3.734c-2.391,-2.392 -3.734,-5.635 -3.734,-9.016c0,-1.095 0.399,-2.152 1.123,-2.974c0.723,-0.822 1.721,-1.352 2.807,-1.49c0.161,-0.02 0.324,0.014 0.464,0.095c0.141,0.081 0.251,0.205 0.314,0.355l1.884,4.394c0.048,0.114 0.068,0.238 0.057,0.361c-0.01,0.123 -0.052,0.242 -0.119,0.345l-1.56,2.384c-0.071,0.107 -0.113,0.231 -0.122,0.359c-0.009,0.128 0.016,0.256 0.072,0.372z" stroke="#0066FF" stroke-width="1.5" stroke-linecap="round" stroke-linejoin="round"/></svg>