<svg viewBox="0 0 18 18" fill="none" xmlns="http://www.w3.org/2000/svg" xmlns:xlink="http://www.w3.org/1999/xlink" x="0" y="0"><defs><clipPath id="clip0_1754_48118">
<rect width="18" height="18" fill="white" transform="translate(0, 0)"/>
</clipPath></defs><g id="pinterest-1 1" clip-path="url(#clip0_1754_48118)">
<path id="Vector_5" d="M17.735,8.97c0,4.84 -3.925,8.77 -8.765,8.77c-4.84,0 -8.765,-3.93 -8.765,-8.77c0,-4.84 3.925,-8.76 8.765,-8.76c4.84,0 8.765,3.92 8.765,8.76z" fill="currentColor"/>
<path id="Vector_6" d="M8.234,3.14c-2.47,0.27 -4.93,2.17 -5.03,4.89c-0.065,1.66 0.63,2.9 2.29,3.25c0.19,-0.78 0.225,-1.21 0.225,-1.21c0,0 -0.73,-0.7 -0.805,-1.14c-0.61,-3.58 4.335,-6.03 6.93,-3.53c1.79,1.74 0.61,7.07 -2.28,6.52c-2.77,-0.53 1.355,-4.78 -0.855,-5.61c-1.795,-0.68 -2.75,2.07 -1.9,3.44c-0.5,2.35 -1.575,4.56 -1.14,7.51c1.415,-0.98 1.89,-2.85 2.28,-4.8c0.71,0.41 1.09,0.84 1.995,0.91c3.34,0.24 5.205,-3.18 4.75,-6.34c-0.41,-2.8 -3.34,-4.22 -6.46,-3.89z" fill="white"/>
</g></svg>