<svg viewBox="0 0 16 16" fill="none" xmlns="http://www.w3.org/2000/svg" xmlns:xlink="http://www.w3.org/1999/xlink" x="0" y="0"><defs><clipPath id="clip3_1754_48118">
<rect width="16" height="16" fill="white" transform="translate(0, 0)"/>
</clipPath></defs><g id="Employers Logo_5" clip-path="url(#clip3_1754_48118)">
<path id="Vector_34" d="M5.33,8c0,-1.47 1.2,-2.67 2.67,-2.67c1.47,0 2.67,1.2 2.67,2.67c0,1.47 -1.2,2.67 -2.67,2.67c-1.47,0 -2.67,-1.2 -2.67,-2.67zM3.89,8c0,2.27 1.84,4.11 4.11,4.11c2.27,0 4.11,-1.84 4.11,-4.11c0,-2.27 -1.84,-4.11 -4.11,-4.11c-2.27,0 -4.11,1.84 -4.11,4.11zM11.31,3.73c0,0.19 0.06,0.37 0.16,0.53c0.11,0.16 0.26,0.28 0.43,0.36c0.18,0.07 0.37,0.09 0.56,0.05c0.18,-0.04 0.35,-0.13 0.49,-0.26c0.13,-0.14 0.22,-0.31 0.26,-0.49c0.04,-0.19 0.02,-0.38 -0.05,-0.56c-0.07,-0.17 -0.2,-0.32 -0.36,-0.43c-0.15,-0.1 -0.34,-0.16 -0.53,-0.16v0c-0.25,0 -0.5,0.1 -0.68,0.28c-0.18,0.18 -0.28,0.42 -0.28,0.68zM4.77,14.51c-0.78,-0.03 -1.21,-0.16 -1.49,-0.27c-0.37,-0.15 -0.64,-0.32 -0.92,-0.6c-0.28,-0.28 -0.45,-0.55 -0.6,-0.92c-0.11,-0.28 -0.24,-0.71 -0.27,-1.49c-0.04,-0.84 -0.05,-1.09 -0.05,-3.23c0,-2.14 0.01,-2.39 0.05,-3.23c0.03,-0.78 0.16,-1.21 0.27,-1.49c0.15,-0.37 0.32,-0.64 0.6,-0.92c0.28,-0.28 0.55,-0.45 0.92,-0.6c0.28,-0.11 0.71,-0.24 1.49,-0.27c0.84,-0.04 1.09,-0.05 3.23,-0.05c2.14,0 2.39,0.01 3.23,0.05c0.78,0.03 1.21,0.16 1.49,0.27c0.37,0.15 0.64,0.32 0.92,0.6c0.28,0.28 0.45,0.55 0.6,0.92c0.11,0.28 0.24,0.71 0.27,1.49c0.04,0.84 0.05,1.09 0.05,3.23c0,2.14 -0.01,2.39 -0.05,3.23c-0.03,0.78 -0.16,1.21 -0.27,1.49c-0.15,0.37 -0.32,0.64 -0.6,0.92c-0.28,0.28 -0.55,0.45 -0.92,0.6c-0.28,0.11 -0.71,0.24 -1.49,0.27c-0.84,0.04 -1.09,0.05 -3.23,0.05c-2.14,0 -2.39,-0.01 -3.23,-0.05zM4.7,0.05c-0.85,0.04 -1.43,0.17 -1.94,0.37c-0.53,0.2 -0.97,0.48 -1.42,0.92c-0.44,0.45 -0.72,0.89 -0.92,1.42c-0.2,0.51 -0.33,1.09 -0.37,1.94c-0.04,0.85 -0.05,1.13 -0.05,3.3c0,2.17 0.01,2.45 0.05,3.3c0.04,0.85 0.17,1.43 0.37,1.94c0.2,0.53 0.48,0.97 0.92,1.42c0.45,0.44 0.89,0.72 1.42,0.92c0.51,0.2 1.09,0.33 1.94,0.37c0.86,0.04 1.13,0.05 3.3,0.05c2.17,0 2.45,-0.01 3.3,-0.05c0.85,-0.04 1.43,-0.17 1.94,-0.37c0.53,-0.2 0.97,-0.48 1.42,-0.92c0.44,-0.45 0.72,-0.89 0.92,-1.42c0.2,-0.51 0.33,-1.09 0.37,-1.94c0.04,-0.86 0.05,-1.13 0.05,-3.3c0,-2.17 -0.01,-2.45 -0.05,-3.3c-0.04,-0.85 -0.17,-1.43 -0.37,-1.94c-0.2,-0.53 -0.48,-0.97 -0.92,-1.42c-0.45,-0.44 -0.89,-0.72 -1.42,-0.92c-0.51,-0.2 -1.09,-0.33 -1.94,-0.37c-0.85,-0.04 -1.13,-0.05 -3.3,-0.05c-2.17,0 -2.44,0.01 -3.3,0.05z" fill="currentColor"/>
<path id="Vector_35" d="M5.33,8c0,-1.47 1.2,-2.67 2.67,-2.67c1.47,0 2.67,1.2 2.67,2.67c0,1.47 -1.2,2.67 -2.67,2.67c-1.47,0 -2.67,-1.2 -2.67,-2.67zM3.89,8c0,2.27 1.84,4.11 4.11,4.11c2.27,0 4.11,-1.84 4.11,-4.11c0,-2.27 -1.84,-4.11 -4.11,-4.11c-2.27,0 -4.11,1.84 -4.11,4.11zM11.31,3.73c0,0.19 0.06,0.37 0.16,0.53c0.11,0.16 0.26,0.28 0.43,0.36c0.18,0.07 0.37,0.09 0.56,0.05c0.18,-0.04 0.35,-0.13 0.49,-0.26c0.13,-0.14 0.22,-0.31 0.26,-0.49c0.04,-0.19 0.02,-0.38 -0.05,-0.56c-0.07,-0.17 -0.2,-0.32 -0.36,-0.43c-0.15,-0.1 -0.34,-0.16 -0.53,-0.16v0c-0.25,0 -0.5,0.1 -0.68,0.28c-0.18,0.18 -0.28,0.42 -0.28,0.68zM4.77,14.51c-0.78,-0.03 -1.21,-0.16 -1.49,-0.27c-0.37,-0.15 -0.64,-0.32 -0.92,-0.6c-0.28,-0.28 -0.45,-0.55 -0.6,-0.92c-0.11,-0.28 -0.24,-0.71 -0.27,-1.49c-0.04,-0.84 -0.05,-1.09 -0.05,-3.23c0,-2.14 0.01,-2.39 0.05,-3.23c0.03,-0.78 0.16,-1.21 0.27,-1.49c0.15,-0.37 0.32,-0.64 0.6,-0.92c0.28,-0.28 0.55,-0.45 0.92,-0.6c0.28,-0.11 0.71,-0.24 1.49,-0.27c0.84,-0.04 1.09,-0.05 3.23,-0.05c2.14,0 2.39,0.01 3.23,0.05c0.78,0.03 1.21,0.16 1.49,0.27c0.37,0.15 0.64,0.32 0.92,0.6c0.28,0.28 0.45,0.55 0.6,0.92c0.11,0.28 0.24,0.71 0.27,1.49c0.04,0.84 0.05,1.09 0.05,3.23c0,2.14 -0.01,2.39 -0.05,3.23c-0.03,0.78 -0.16,1.21 -0.27,1.49c-0.15,0.37 -0.32,0.64 -0.6,0.92c-0.28,0.28 -0.55,0.45 -0.92,0.6c-0.28,0.11 -0.71,0.24 -1.49,0.27c-0.84,0.04 -1.09,0.05 -3.23,0.05c-2.14,0 -2.39,-0.01 -3.23,-0.05zM4.7,0.05c-0.85,0.04 -1.43,0.17 -1.94,0.37c-0.53,0.2 -0.97,0.48 -1.42,0.92c-0.44,0.45 -0.72,0.89 -0.92,1.42c-0.2,0.51 -0.33,1.09 -0.37,1.94c-0.04,0.85 -0.05,1.13 -0.05,3.3c0,2.17 0.01,2.45 0.05,3.3c0.04,0.85 0.17,1.43 0.37,1.94c0.2,0.53 0.48,0.97 0.92,1.42c0.45,0.44 0.89,0.72 1.42,0.92c0.51,0.2 1.09,0.33 1.94,0.37c0.86,0.04 1.13,0.05 3.3,0.05c2.17,0 2.45,-0.01 3.3,-0.05c0.85,-0.04 1.43,-0.17 1.94,-0.37c0.53,-0.2 0.97,-0.48 1.42,-0.92c0.44,-0.45 0.72,-0.89 0.92,-1.42c0.2,-0.51 0.33,-1.09 0.37,-1.94c0.04,-0.86 0.05,-1.13 0.05,-3.3c0,-2.17 -0.01,-2.45 -0.05,-3.3c-0.04,-0.85 -0.17,-1.43 -0.37,-1.94c-0.2,-0.53 -0.48,-0.97 -0.92,-1.42c-0.45,-0.44 -0.89,-0.72 -1.42,-0.92c-0.51,-0.2 -1.09,-0.33 -1.94,-0.37c-0.85,-0.04 -1.13,-0.05 -3.3,-0.05c-2.17,0 -2.44,0.01 -3.3,0.05z" fill="currentColor"/>
</g></svg>