<svg viewBox="0 0 15.9108 12.8567" fill="none" xmlns="http://www.w3.org/2000/svg" xmlns:xlink="http://www.w3.org/1999/xlink" x="0" y="0"><path id="Vector_33" d="M5,12.8541c6.01,0 9.29,-4.94 9.29,-9.23c0,-0.14 0,-0.28 -0.01,-0.42c0.64,-0.46 1.19,-1.03 1.63,-1.68c-0.58,0.26 -1.21,0.43 -1.87,0.51c0.67,-0.4 1.19,-1.04 1.43,-1.8c-0.64,0.38 -1.34,0.65 -2.07,0.79c-0.6,-0.63 -1.44,-1.02 -2.38,-1.02c-1.81,0 -3.27,1.45 -3.27,3.24c0,0.26 0.03,0.5 0.09,0.74c-2.72,-0.13 -5.12,-1.43 -6.73,-3.39c-0.29,0.5 -0.45,1.06 -0.44,1.63c0,1.13 0.57,2.12 1.45,2.7c-0.52,-0.01 -1.03,-0.15 -1.48,-0.4c0,0.01 0,0.02 0,0.04c0,1.57 1.12,2.88 2.62,3.18c-0.28,0.08 -0.57,0.11 -0.86,0.11c-0.21,0 -0.42,-0.02 -0.62,-0.05c0.42,1.29 1.62,2.22 3.05,2.25c-1.11,0.87 -2.52,1.39 -4.05,1.39c-0.26,0 -0.52,-0.02 -0.78,-0.05c1.44,0.93 3.16,1.46 5,1.46" fill="currentColor"/></svg>