<svg viewBox="0 0 16 11.2941" fill="none" xmlns="http://www.w3.org/2000/svg" xmlns:xlink="http://www.w3.org/1999/xlink" x="0" y="0"><path id="Vector_36" d="M8.35,11.2775l-3.28,-0.06c-1.06,-0.02 -2.13,0.02 -3.17,-0.2c-1.58,-0.33 -1.7,-1.95 -1.81,-3.31c-0.17,-1.91 -0.1,-3.85 0.2,-5.75c0.18,-1.06 0.85,-1.7 1.9,-1.77c3.55,-0.25 7.12,-0.22 10.65,-0.1c0.37,0.01 0.75,0.07 1.12,0.14c1.82,0.32 1.86,2.16 1.98,3.7c0.12,1.56 0.07,3.13 -0.16,4.68c-0.18,1.29 -0.52,2.37 -1.98,2.47c-1.82,0.14 -3.6,0.24 -5.43,0.21c0,-0.01 -0.01,-0.01 -0.02,-0.01zM6.42,8.0275c1.38,-0.8 2.73,-1.6 4.09,-2.39c-1.37,-0.81 -2.72,-1.6 -4.09,-2.4z" fill="currentColor"/></svg>