<svg viewBox="0 0 17.8996 14.4638" fill="none" xmlns="http://www.w3.org/2000/svg" xmlns:xlink="http://www.w3.org/1999/xlink" x="0" y="0"><defs><mask id="path-26-inside-1_1754_48118" fill="white">
<path d="M5.629,14.4617c6.755,0 10.449,-5.56 10.449,-10.39c0,-0.15 -0.003,-0.31 -0.01,-0.47c0.719,-0.52 1.339,-1.16 1.832,-1.89c-0.658,0.29 -1.366,0.49 -2.109,0.58c0.758,-0.46 1.34,-1.17 1.615,-2.02c-0.721,0.42 -1.51,0.72 -2.332,0.88c-0.671,-0.71 -1.625,-1.15 -2.681,-1.15c-2.028,0 -3.673,1.63 -3.673,3.65c0,0.29 0.033,0.56 0.096,0.83c-3.053,-0.15 -5.759,-1.6 -7.57,-3.81c-0.327,0.55 -0.498,1.19 -0.498,1.83c0,1.27 0.649,2.39 1.635,3.04c-0.584,-0.02 -1.154,-0.17 -1.664,-0.46c0,0.02 0,0.03 0,0.05c0,1.77 1.266,3.25 2.946,3.58c-0.316,0.09 -0.641,0.13 -0.968,0.13c-0.236,0 -0.467,-0.02 -0.69,-0.07c0.467,1.45 1.823,2.51 3.43,2.54c-1.257,0.98 -2.84,1.56 -4.561,1.56c-0.293,0 -0.585,-0.01 -0.876,-0.05c1.625,1.04 3.555,1.64 5.629,1.64"/>
</mask></defs><g id="Vector_4">
<mask id="path-26-inside-1_1754_48118" fill="white">
<path d="M565.629 1500.2C572.384 1500.2 576.078 1494.64 576.078 1489.81C576.078 1489.66 576.075 1489.5 576.068 1489.34C576.787 1488.82 577.407 1488.18 577.9 1487.45C577.242 1487.74 576.534 1487.94 575.791 1488.03C576.549 1487.57 577.131 1486.86 577.406 1486.01C576.685 1486.43 575.896 1486.73 575.074 1486.89C574.403 1486.18 573.449 1485.74 572.393 1485.74C570.365 1485.74 568.72 1487.37 568.72 1489.39C568.72 1489.68 568.753 1489.95 568.816 1490.22C565.763 1490.07 563.057 1488.62 561.246 1486.41C560.919 1486.96 560.748 1487.6 560.748 1488.24C560.748 1489.51 561.397 1490.63 562.383 1491.28C561.799 1491.26 561.229 1491.11 560.719 1490.82C560.719 1490.84 560.719 1490.85 560.719 1490.87C560.719 1492.64 561.985 1494.12 563.665 1494.45C563.349 1494.54 563.024 1494.58 562.697 1494.58C562.461 1494.58 562.23 1494.56 562.007 1494.51C562.474 1495.96 563.83 1497.02 565.437 1497.05C564.18 1498.03 562.597 1498.61 560.876 1498.61C560.583 1498.61 560.291 1498.6 560 1498.56C561.625 1499.6 563.555 1500.2 565.629 1500.2"/>
</mask>
<path d="M5.629,14.4617c6.755,0 10.449,-5.56 10.449,-10.39c0,-0.15 -0.003,-0.31 -0.01,-0.47c0.719,-0.52 1.339,-1.16 1.832,-1.89c-0.658,0.29 -1.366,0.49 -2.109,0.58c0.758,-0.46 1.34,-1.17 1.615,-2.02c-0.721,0.42 -1.51,0.72 -2.332,0.88c-0.671,-0.71 -1.625,-1.15 -2.681,-1.15c-2.028,0 -3.673,1.63 -3.673,3.65c0,0.29 0.033,0.56 0.096,0.83c-3.053,-0.15 -5.759,-1.6 -7.57,-3.81c-0.327,0.55 -0.498,1.19 -0.498,1.83c0,1.27 0.649,2.39 1.635,3.04c-0.584,-0.02 -1.154,-0.17 -1.664,-0.46c0,0.02 0,0.03 0,0.05c0,1.77 1.266,3.25 2.946,3.58c-0.316,0.09 -0.641,0.13 -0.968,0.13c-0.236,0 -0.467,-0.02 -0.69,-0.07c0.467,1.45 1.823,2.51 3.43,2.54c-1.257,0.98 -2.84,1.56 -4.561,1.56c-0.293,0 -0.585,-0.01 -0.876,-0.05c1.625,1.04 3.555,1.64 5.629,1.64" fill="#1DA1F2"/>
<path d="M16.068,3.6017l-2.201,-3.06l-1.657,1.19l0.093,2.04zM17.9,1.7117l3.127,2.1l7.268,-10.81l-11.919,5.26zM15.791,2.2917l-1.93,-3.24l2.374,6.98zM17.406,0.2717l3.586,1.15l3.042,-9.44l-8.543,5.04zM15.074,1.1517l-2.74,2.59l1.426,1.51l2.039,-0.4zM8.816,4.4817l-0.189,3.77l5.006,0.25l-1.15,-4.88zM1.246,0.6717l2.914,-2.39l-3.432,-4.19l-2.734,4.67zM0.748,2.5017h3.769v0zM2.383,5.5417l-0.115,3.77l13.21,0.4l-11.012,-7.31zM0.719,5.0817l1.827,-3.29l-5.374,-2.98l-0.219,6.14zM3.665,8.7117l0.985,3.64l-0.249,-7.34zM2.697,8.8417l0.002,-3.77h-0.002zM2.007,8.7717l0.706,-3.7l-6.242,-1.19l1.949,6.05zM5.437,11.3117l2.316,2.97l8.399,-6.54l-10.646,-0.2zM0.876,12.8717v-3.77h-0.003zM0,12.8217l0.437,-3.74l-2.462,6.92zM5.629,18.2317c9.25,0 14.217,-7.69 14.217,-14.16h-7.536c0,3.19 -2.421,6.62 -6.681,6.62zM19.846,4.0717c0,-0.21 -0.004,-0.42 -0.014,-0.64l-7.529,0.34c0.005,0.1 0.007,0.2 0.007,0.3zM18.268,6.6617c1.082,-0.78 2.016,-1.74 2.759,-2.85l-6.255,-4.2c-0.243,0.36 -0.549,0.68 -0.905,0.93zM16.376,-1.7383c-0.314,0.14 -0.658,0.24 -1.03,0.28l0.889,7.49c1.114,-0.14 2.186,-0.43 3.188,-0.87zM17.72,5.5217c1.525,-0.91 2.71,-2.35 3.272,-4.1l-7.173,-2.31c0.007,-0.02 0.016,-0.04 0.023,-0.04c0.006,-0.01 0.012,-0.02 0.019,-0.02zM15.491,-2.9783c-0.352,0.21 -0.739,0.35 -1.143,0.43l1.451,7.4c1.241,-0.24 2.432,-0.7 3.521,-1.34zM17.814,-1.4383c-1.356,-1.43 -3.289,-2.33 -5.421,-2.33v7.54c0,0 -0.001,0 -0.003,0c-0.003,0 -0.005,0 -0.009,0c-0.006,-0.01 -0.013,-0.01 -0.019,-0.01c-0.012,-0.01 -0.021,-0.01 -0.028,-0.02zM12.393,-3.7683c-4.088,0 -7.441,3.3 -7.441,7.42h7.537c0,0.01 -0.004,0.03 -0.013,0.05c-0.007,0.02 -0.016,0.03 -0.023,0.04c-0.007,0.01 -0.016,0.01 -0.028,0.02c-0.007,0 -0.014,0 -0.021,0.01c-0.003,0 -0.006,0 -0.008,0c-0.002,0 -0.003,0 -0.003,0zM4.952,3.6517c0,0.57 0.064,1.14 0.196,1.7l7.335,-1.73c0.006,0.02 0.006,0.03 0.006,0.03zM9.004,0.7217c-1.954,-0.1 -3.684,-1.03 -4.844,-2.44l-5.828,4.78c2.461,3 6.145,4.98 10.295,5.19zM-2.006,-1.2383c-0.665,1.14 -1.015,2.43 -1.014,3.75l7.537,-0.01c0,0.03 -0.007,0.05 -0.019,0.07zM-3.02,2.5017c0,2.59 1.327,4.86 3.319,6.18l4.167,-6.28c0.013,0.01 0.024,0.02 0.033,0.04c0.005,0.01 0.01,0.02 0.013,0.03c0.004,0.02 0.005,0.03 0.005,0.03zM2.497,1.7717c0.016,0.01 0.033,0.01 0.049,0.02l-3.653,6.59c1.036,0.57 2.193,0.89 3.375,0.93zM-3.047,4.9517c-0.003,0.09 -0.002,0.18 -0.002,0.18h7.536c0,-0.01 0,0 0,0.01c0,0.02 0,0.04 -0.002,0.08zM-3.049,5.1317c0,3.62 2.583,6.6 5.978,7.28l1.472,-7.4c0.027,0.01 0.045,0.02 0.056,0.04c0.006,0 0.014,0.02 0.021,0.03c0.007,0.02 0.009,0.04 0.009,0.05zM2.68,5.0717c0.007,0 0.013,0 0.019,0l-0.004,7.54c0.66,0 1.317,-0.09 1.955,-0.26zM2.697,5.0717c0.005,0 0.009,0 0.012,0c0.004,0 0.005,0 0.004,0l-1.413,7.4c0.447,0.09 0.913,0.14 1.397,0.14zM-1.58,9.9317c0.952,2.95 3.699,5.09 6.948,5.15l0.138,-7.54c0.003,0 0.013,0 0.024,0.01c0.011,0 0.02,0.01 0.026,0.01c0.01,0.01 0.026,0.02 0.037,0.06zM3.121,8.3417c-0.617,0.48 -1.39,0.76 -2.245,0.76v7.54c2.587,0 4.98,-0.88 6.877,-2.36zM0.873,9.1017c-0.146,0 -0.291,0 -0.436,-0.02l-0.874,7.48c0.437,0.06 0.876,0.08 1.316,0.08zM-2.025,16.0017c2.208,1.41 4.837,2.23 7.654,2.23v-7.54c-1.331,0 -2.562,-0.38 -3.604,-1.05z" fill="#1DA1F2" mask="url(#path-26-inside-1_1754_48118)"/>
</g></svg>