<svg viewBox="0 0 25 22" fill="none" xmlns="http://www.w3.org/2000/svg" xmlns:xlink="http://www.w3.org/1999/xlink" x="0" y="0"><g id="Wallet_2">
<path id="Vector_14" d="M1,3v16c0,0.53 0.21,1.039 0.59,1.414c0.37,0.375 0.88,0.586 1.41,0.586h20c0.27,0 0.52,-0.105 0.71,-0.293c0.18,-0.187 0.29,-0.442 0.29,-0.707v-14c0,-0.265 -0.11,-0.52 -0.29,-0.707c-0.19,-0.188 -0.44,-0.293 -0.71,-0.293h-20c-0.53,0 -1.04,-0.211 -1.41,-0.586c-0.38,-0.375 -0.59,-0.884 -0.59,-1.414zM1,3c0,-0.53 0.21,-1.039 0.59,-1.414c0.37,-0.375 0.88,-0.586 1.41,-0.586h17" stroke="#0A65CC" stroke-width="2" stroke-linecap="round" stroke-linejoin="round"/>
<path id="Vector_15" d="M18.5,12.5c0.28,0 0.5,0.224 0.5,0.5c0,0.276 -0.22,0.5 -0.5,0.5c-0.28,0 -0.5,-0.224 -0.5,-0.5c0,-0.276 0.22,-0.5 0.5,-0.5z" fill="#18191C" stroke="#0A65CC" stroke-width="2"/>
</g></svg>