<svg viewBox="0 0 312 256" fill="none" xmlns="http://www.w3.org/2000/svg" xmlns:xlink="http://www.w3.org/1999/xlink" x="0" y="0"><g id="Status update-bro 1">
<g id="freepik--background-simple--inject-85">
<g id="freepik--background-simple--inject-11--inject-85">
<path id="Vector" d="M241.07,25.702c0,0 -29.02,-23.712 -66.77,-13.21c-37.74,10.502 -53.56,43.056 -75.2,65.408c-11.33,11.706 -28.08,16.018 -41.56,25.035c-43.05,28.816 -36.69,93.6 -3.48,118.035c32.1,23.594 74.81,20.28 111.01,9.392c66.18,-19.918 145.88,-80.684 111.47,-158.496c-8.06,-17.948 -20.2,-33.759 -35.47,-46.164z" fill="#9DC1EB"/>
<path id="Vector_2" opacity="0.7" d="M241.07,25.702c0,0 -29.02,-23.712 -66.77,-13.21c-37.74,10.502 -53.56,43.056 -75.2,65.408c-11.33,11.706 -28.08,16.018 -41.56,25.035c-43.05,28.816 -36.69,93.6 -3.48,118.035c32.1,23.594 74.81,20.28 111.01,9.392c66.18,-19.918 145.88,-80.684 111.47,-158.496c-8.06,-17.948 -20.2,-33.759 -35.47,-46.164z" fill="white"/>
</g>
</g>
<g id="freepik--Shape--inject-85">
<path id="Vector_3" d="M156,252.264c72.81,0 131.83,-4.702 131.83,-10.502c0,-5.8 -59.02,-10.502 -131.83,-10.502c-72.81,0 -131.83,4.702 -131.83,10.502c0,5.8 59.02,10.502 131.83,10.502z" fill="#9DC1EB"/>
<path id="Vector_4" opacity="0.5" d="M156,252.264c72.81,0 131.83,-4.702 131.83,-10.502c0,-5.8 -59.02,-10.502 -131.83,-10.502c-72.81,0 -131.83,4.702 -131.83,10.502c0,5.8 59.02,10.502 131.83,10.502z" fill="white"/>
</g>
<g id="freepik--Status--inject-85">
<path id="Vector_5" d="M261.67,22.707h-136.39c-2.96,0 -5.36,2.4 -5.36,5.36v71.092c0,2.961 2.4,5.361 5.36,5.361h136.39c2.96,0 5.36,-2.4 5.36,-5.361v-71.092c0,-2.96 -2.4,-5.36 -5.36,-5.36z" fill="#063D7A"/>
<path id="Vector_6" d="M266.02,25.77h-136.38c-2.96,0 -5.36,2.399 -5.36,5.36v71.092c0,2.96 2.4,5.36 5.36,5.36h136.38c2.96,0 5.36,-2.4 5.36,-5.36v-71.092c0,-2.961 -2.4,-5.36 -5.36,-5.36z" fill="white" stroke="#063D7A" stroke-miterlimit="10"/>
<path id="Vector_7" d="M141.93,35.723c0,0.927 -0.28,1.833 -0.79,2.604c-0.52,0.771 -1.25,1.371 -2.1,1.726c-0.86,0.355 -1.8,0.447 -2.71,0.267c-0.91,-0.181 -1.75,-0.628 -2.4,-1.283c-0.66,-0.655 -1.1,-1.49 -1.28,-2.399c-0.19,-0.909 -0.09,-1.852 0.26,-2.708c0.36,-0.856 0.96,-1.588 1.73,-2.103c0.77,-0.515 1.68,-0.79 2.6,-0.79c0.62,0 1.23,0.121 1.8,0.357c0.56,0.235 1.08,0.581 1.52,1.016c0.43,0.435 0.78,0.951 1.01,1.52c0.24,0.569 0.36,1.178 0.36,1.793z" fill="#9DC1EB" stroke="#063D7A" stroke-miterlimit="10"/>
<path id="Vector_8" d="M134.14,32.209l6.24,6.983" stroke="#063D7A" stroke-miterlimit="10"/>
<path id="Vector_9" d="M140.81,32.271l-6.38,6.858" stroke="#063D7A" stroke-miterlimit="10"/>
<g id="Job tittle">
<path d="M153.93,38.02v5.11c0,0.3 -0.05,0.573 -0.16,0.82c-0.1,0.247 -0.25,0.457 -0.44,0.63c-0.19,0.173 -0.41,0.307 -0.68,0.4c-0.27,0.093 -0.56,0.14 -0.89,0.14c-0.61,0 -1.1,-0.153 -1.47,-0.46c-0.36,-0.307 -0.59,-0.73 -0.7,-1.27l1.06,-0.22c0.06,0.287 0.17,0.527 0.34,0.72c0.17,0.193 0.43,0.29 0.78,0.29c0.33,0 0.58,-0.097 0.76,-0.29c0.19,-0.2 0.28,-0.503 0.28,-0.91v-4.02h-2.43v-0.94zM158,45.12c-0.44,0 -0.83,-0.08 -1.15,-0.24c-0.32,-0.167 -0.59,-0.403 -0.8,-0.71c-0.21,-0.307 -0.36,-0.683 -0.46,-1.13c-0.1,-0.447 -0.15,-0.957 -0.15,-1.53c0,-0.567 0.05,-1.073 0.15,-1.52c0.1,-0.453 0.25,-0.833 0.46,-1.14c0.21,-0.307 0.48,-0.54 0.8,-0.7c0.32,-0.167 0.71,-0.25 1.15,-0.25c0.44,0 0.82,0.083 1.14,0.25c0.32,0.16 0.59,0.393 0.8,0.7c0.21,0.307 0.37,0.687 0.47,1.14c0.1,0.447 0.15,0.953 0.15,1.52c0,0.573 -0.05,1.083 -0.15,1.53c-0.1,0.447 -0.26,0.823 -0.47,1.13c-0.21,0.307 -0.48,0.543 -0.8,0.71c-0.32,0.16 -0.7,0.24 -1.14,0.24zM158,44.19c0.5,0 0.85,-0.187 1.06,-0.56c0.2,-0.38 0.31,-0.893 0.31,-1.54v-1.17c0,-0.64 -0.11,-1.147 -0.31,-1.52c-0.21,-0.38 -0.56,-0.57 -1.06,-0.57c-0.5,0 -0.86,0.19 -1.06,0.57c-0.21,0.373 -0.31,0.88 -0.31,1.52v1.18c0,0.64 0.1,1.15 0.31,1.53c0.2,0.373 0.56,0.56 1.06,0.56zM161.82,38.02h2.41c0.64,0 1.13,0.163 1.47,0.49c0.36,0.327 0.53,0.773 0.53,1.34c0,0.407 -0.1,0.73 -0.3,0.97c-0.2,0.24 -0.47,0.41 -0.81,0.51v0.05c0.41,0.093 0.74,0.273 0.98,0.54c0.25,0.26 0.37,0.63 0.37,1.11c0,0.287 -0.04,0.55 -0.14,0.79c-0.09,0.24 -0.22,0.45 -0.4,0.63c-0.17,0.173 -0.38,0.31 -0.63,0.41c-0.24,0.093 -0.5,0.14 -0.8,0.14h-2.68zM164.16,44.14c0.38,0 0.66,-0.077 0.86,-0.23c0.2,-0.153 0.3,-0.4 0.3,-0.74v-0.36c0,-0.34 -0.1,-0.587 -0.3,-0.74c-0.2,-0.153 -0.48,-0.23 -0.86,-0.23h-1.24v2.3zM164,41.02c0.36,0 0.62,-0.067 0.8,-0.2c0.19,-0.14 0.28,-0.37 0.28,-0.69v-0.36c0,-0.32 -0.09,-0.547 -0.28,-0.68c-0.18,-0.14 -0.44,-0.21 -0.8,-0.21h-1.08v2.14zM174.64,38.96v6.04h-1.12v-6.04h-2.19v-0.94h5.5v0.94zM177.88,45v-0.85h1.64v-5.28h-1.64v-0.85h4.4v0.85h-1.64v5.28h1.64v0.85zM186.64,38.96v6.04h-1.12v-6.04h-2.19v-0.94h5.5v0.94zM192.63,38.96v6.04h-1.12v-6.04h-2.19v-0.94h5.5v0.94zM196.15,45v-6.98h1.12v6.04h3.18v0.94zM201.92,45v-6.98h4.37v0.94h-3.25v2.03h3.13v0.94h-3.13v2.13h3.25v0.94z" fill="#18191C"/>
</g>
<g id="Frame 257">
<rect x="193" y="80.5" width="70" height="19" rx="9.5" fill="#0A65CC"/>
<g id="POST Job">
<path d="M205.8,93.5v-6.98h2.65c0.68,0 1.2,0.193 1.56,0.58c0.36,0.387 0.54,0.913 0.54,1.58c0,0.667 -0.18,1.193 -0.54,1.58c-0.36,0.387 -0.88,0.58 -1.56,0.58h-1.34v2.66zM207.11,89.77h1.07c0.35,0 0.61,-0.07 0.76,-0.21c0.15,-0.147 0.23,-0.377 0.23,-0.69v-0.38c0,-0.313 -0.08,-0.54 -0.23,-0.68c-0.15,-0.147 -0.41,-0.22 -0.76,-0.22h-1.07zM214,93.62c-0.46,0 -0.85,-0.08 -1.18,-0.24c-0.34,-0.167 -0.61,-0.403 -0.83,-0.71c-0.22,-0.307 -0.38,-0.683 -0.48,-1.13c-0.1,-0.447 -0.15,-0.957 -0.15,-1.53c0,-0.567 0.05,-1.073 0.15,-1.52c0.1,-0.453 0.26,-0.833 0.48,-1.14c0.22,-0.307 0.49,-0.54 0.83,-0.7c0.33,-0.167 0.72,-0.25 1.18,-0.25c0.9,0 1.57,0.317 2,0.95c0.42,0.633 0.64,1.52 0.64,2.66c0,1.14 -0.22,2.027 -0.64,2.66c-0.43,0.633 -1.1,0.95 -2,0.95zM214,92.55c0.23,0 0.43,-0.043 0.59,-0.13c0.16,-0.093 0.28,-0.223 0.38,-0.39c0.1,-0.167 0.17,-0.37 0.21,-0.61c0.04,-0.247 0.07,-0.52 0.07,-0.82v-1.19c0,-0.6 -0.1,-1.073 -0.28,-1.42c-0.18,-0.347 -0.51,-0.52 -0.97,-0.52c-0.47,0 -0.8,0.173 -0.98,0.52c-0.18,0.347 -0.27,0.82 -0.27,1.42v1.2c0,0.6 0.09,1.073 0.27,1.42c0.18,0.347 0.51,0.52 0.98,0.52zM219.91,93.62c-0.6,0 -1.11,-0.103 -1.54,-0.31c-0.42,-0.207 -0.76,-0.48 -1.03,-0.82l0.79,-0.82c0.26,0.3 0.54,0.523 0.84,0.67c0.31,0.14 0.64,0.21 0.98,0.21c0.4,0 0.71,-0.09 0.92,-0.27c0.22,-0.18 0.32,-0.44 0.32,-0.78c0,-0.28 -0.08,-0.49 -0.24,-0.63c-0.16,-0.147 -0.43,-0.25 -0.81,-0.31l-0.74,-0.12c-0.64,-0.113 -1.1,-0.347 -1.38,-0.7c-0.27,-0.36 -0.41,-0.783 -0.41,-1.27c0,-0.667 0.22,-1.177 0.65,-1.53c0.44,-0.36 1.04,-0.54 1.8,-0.54c0.55,0 1.02,0.087 1.41,0.26c0.4,0.173 0.72,0.41 0.96,0.71l-0.77,0.82c-0.18,-0.22 -0.41,-0.393 -0.67,-0.52c-0.26,-0.133 -0.56,-0.2 -0.92,-0.2c-0.76,0 -1.14,0.313 -1.14,0.94c0,0.267 0.08,0.47 0.24,0.61c0.16,0.14 0.44,0.243 0.82,0.31l0.73,0.13c0.61,0.113 1.06,0.337 1.35,0.67c0.3,0.333 0.44,0.76 0.44,1.28c0,0.327 -0.05,0.627 -0.17,0.9c-0.11,0.267 -0.28,0.5 -0.5,0.7c-0.22,0.193 -0.49,0.343 -0.82,0.45c-0.32,0.107 -0.69,0.16 -1.11,0.16zM226.64,87.6v5.9h-1.3v-5.9h-2.1v-1.08h5.5v1.08zM238,86.52v5.07c0,0.313 -0.05,0.597 -0.16,0.85c-0.11,0.247 -0.26,0.457 -0.46,0.63c-0.19,0.173 -0.43,0.31 -0.71,0.41c-0.27,0.093 -0.58,0.14 -0.92,0.14c-0.66,0 -1.18,-0.167 -1.56,-0.5c-0.37,-0.333 -0.61,-0.777 -0.72,-1.33l1.23,-0.26c0.06,0.293 0.17,0.537 0.32,0.73c0.16,0.187 0.4,0.28 0.73,0.28c0.3,0 0.53,-0.087 0.69,-0.26c0.16,-0.18 0.24,-0.46 0.24,-0.84v-3.84h-2.36v-1.08zM241.98,93.62c-0.46,0 -0.85,-0.08 -1.18,-0.24c-0.34,-0.167 -0.61,-0.403 -0.83,-0.71c-0.22,-0.307 -0.38,-0.683 -0.48,-1.13c-0.1,-0.447 -0.15,-0.957 -0.15,-1.53c0,-0.567 0.05,-1.073 0.15,-1.52c0.1,-0.453 0.26,-0.833 0.48,-1.14c0.22,-0.307 0.49,-0.54 0.83,-0.7c0.33,-0.167 0.72,-0.25 1.18,-0.25c0.9,0 1.57,0.317 2,0.95c0.42,0.633 0.64,1.52 0.64,2.66c0,1.14 -0.22,2.027 -0.64,2.66c-0.43,0.633 -1.1,0.95 -2,0.95zM241.98,92.55c0.23,0 0.43,-0.043 0.59,-0.13c0.16,-0.093 0.28,-0.223 0.38,-0.39c0.1,-0.167 0.17,-0.37 0.21,-0.61c0.04,-0.247 0.07,-0.52 0.07,-0.82v-1.19c0,-0.6 -0.1,-1.073 -0.28,-1.42c-0.18,-0.347 -0.51,-0.52 -0.97,-0.52c-0.47,0 -0.8,0.173 -0.98,0.52c-0.18,0.347 -0.27,0.82 -0.27,1.42v1.2c0,0.6 0.09,1.073 0.27,1.42c0.18,0.347 0.51,0.52 0.98,0.52zM245.77,86.52h2.43c0.66,0 1.17,0.167 1.52,0.5c0.36,0.327 0.54,0.773 0.54,1.34c0,0.4 -0.1,0.72 -0.3,0.96c-0.19,0.24 -0.47,0.413 -0.83,0.52v0.05c0.42,0.1 0.75,0.283 0.99,0.55c0.25,0.26 0.37,0.63 0.37,1.11c0,0.293 -0.05,0.56 -0.15,0.8c-0.09,0.233 -0.23,0.437 -0.41,0.61c-0.17,0.173 -0.38,0.307 -0.64,0.4c-0.24,0.093 -0.52,0.14 -0.84,0.14h-2.68zM248.05,92.55c0.37,0 0.64,-0.067 0.82,-0.2c0.19,-0.14 0.28,-0.377 0.28,-0.71v-0.33c0,-0.327 -0.09,-0.557 -0.28,-0.69c-0.18,-0.14 -0.45,-0.21 -0.82,-0.21h-1v2.14zM247.88,89.5c0.36,0 0.62,-0.063 0.78,-0.19c0.18,-0.127 0.26,-0.347 0.26,-0.66v-0.33c0,-0.313 -0.08,-0.533 -0.26,-0.66c-0.16,-0.127 -0.42,-0.19 -0.78,-0.19h-0.83v2.03z" fill="white"/>
</g>
</g>
<path id="Add job tittle, role name" d="M153.81,62l-0.59,-1.99h-2.45l-0.59,1.99h-0.87l2.14,-6.98h1.11l2.14,6.98zM152.04,55.91h-0.09l-0.98,3.37h2.05zM159.25,61.16h-0.04c-0.34,0.64 -0.87,0.96 -1.59,0.96c-0.64,0 -1.13,-0.237 -1.49,-0.71c-0.36,-0.473 -0.53,-1.137 -0.53,-1.99c0,-0.853 0.17,-1.517 0.53,-1.99c0.36,-0.473 0.85,-0.71 1.49,-0.71c0.72,0 1.25,0.32 1.59,0.96h0.04v-3.08h0.8v7.4h-0.8zM157.93,61.41c0.18,0 0.35,-0.023 0.51,-0.07c0.16,-0.047 0.3,-0.113 0.42,-0.2c0.12,-0.093 0.21,-0.203 0.28,-0.33c0.07,-0.133 0.11,-0.287 0.11,-0.46v-1.86c0,-0.173 -0.04,-0.323 -0.11,-0.45c-0.07,-0.133 -0.16,-0.243 -0.28,-0.33c-0.12,-0.093 -0.26,-0.163 -0.42,-0.21c-0.16,-0.047 -0.33,-0.07 -0.51,-0.07c-0.47,0 -0.83,0.143 -1.09,0.43c-0.26,0.28 -0.38,0.653 -0.38,1.12v0.88c0,0.467 0.12,0.843 0.38,1.13c0.26,0.28 0.62,0.42 1.09,0.42zM165.24,61.16h-0.04c-0.33,0.64 -0.86,0.96 -1.59,0.96c-0.63,0 -1.13,-0.237 -1.49,-0.71c-0.35,-0.473 -0.53,-1.137 -0.53,-1.99c0,-0.853 0.18,-1.517 0.53,-1.99c0.36,-0.473 0.86,-0.71 1.49,-0.71c0.73,0 1.26,0.32 1.59,0.96h0.04v-3.08h0.8v7.4h-0.8zM163.92,61.41c0.18,0 0.35,-0.023 0.51,-0.07c0.16,-0.047 0.3,-0.113 0.42,-0.2c0.12,-0.093 0.22,-0.203 0.28,-0.33c0.08,-0.133 0.11,-0.287 0.11,-0.46v-1.86c0,-0.173 -0.03,-0.323 -0.11,-0.45c-0.06,-0.133 -0.16,-0.243 -0.28,-0.33c-0.12,-0.093 -0.26,-0.163 -0.42,-0.21c-0.16,-0.047 -0.33,-0.07 -0.51,-0.07c-0.46,0 -0.83,0.143 -1.09,0.43c-0.25,0.28 -0.38,0.653 -0.38,1.12v0.88c0,0.467 0.13,0.843 0.38,1.13c0.26,0.28 0.63,0.42 1.09,0.42zM174,63.32h2.5v-5.8h-2.59v-0.68h3.39v5.98c0,0.347 -0.09,0.63 -0.28,0.85c-0.18,0.22 -0.46,0.33 -0.86,0.33h-2.16zM176.9,55.7c-0.23,0 -0.39,-0.047 -0.49,-0.14c-0.09,-0.1 -0.14,-0.223 -0.14,-0.37v-0.16c0,-0.147 0.05,-0.267 0.14,-0.36c0.1,-0.1 0.26,-0.15 0.49,-0.15c0.24,0 0.4,0.05 0.49,0.15c0.1,0.093 0.14,0.213 0.14,0.36v0.16c0,0.147 -0.04,0.27 -0.14,0.37c-0.09,0.093 -0.25,0.14 -0.49,0.14zM181.98,62.12c-0.36,0 -0.69,-0.063 -0.98,-0.19c-0.29,-0.127 -0.53,-0.307 -0.74,-0.54c-0.2,-0.24 -0.35,-0.523 -0.46,-0.85c-0.11,-0.333 -0.16,-0.707 -0.16,-1.12c0,-0.407 0.05,-0.777 0.16,-1.11c0.11,-0.333 0.26,-0.617 0.46,-0.85c0.21,-0.24 0.45,-0.423 0.74,-0.55c0.29,-0.127 0.62,-0.19 0.98,-0.19c0.36,0 0.68,0.063 0.97,0.19c0.29,0.127 0.54,0.31 0.74,0.55c0.21,0.233 0.36,0.517 0.47,0.85c0.11,0.333 0.16,0.703 0.16,1.11c0,0.413 -0.05,0.787 -0.16,1.12c-0.11,0.327 -0.26,0.61 -0.47,0.85c-0.2,0.233 -0.45,0.413 -0.74,0.54c-0.29,0.127 -0.61,0.19 -0.97,0.19zM181.98,61.43c0.45,0 0.81,-0.133 1.08,-0.4c0.27,-0.267 0.41,-0.68 0.41,-1.24v-0.74c0,-0.56 -0.14,-0.973 -0.41,-1.24c-0.27,-0.267 -0.63,-0.4 -1.08,-0.4c-0.45,0 -0.81,0.133 -1.08,0.4c-0.27,0.267 -0.41,0.68 -0.41,1.24v0.74c0,0.56 0.14,0.973 0.41,1.24c0.27,0.267 0.63,0.4 1.08,0.4zM185.93,54.6h0.8v3.08h0.04c0.33,-0.64 0.86,-0.96 1.59,-0.96c0.63,0 1.12,0.237 1.48,0.71c0.36,0.473 0.54,1.137 0.54,1.99c0,0.853 -0.18,1.517 -0.54,1.99c-0.36,0.473 -0.85,0.71 -1.48,0.71c-0.73,0 -1.26,-0.32 -1.59,-0.96h-0.04v0.84h-0.8zM188.05,61.41c0.46,0 0.82,-0.14 1.08,-0.42c0.26,-0.287 0.39,-0.663 0.39,-1.13v-0.88c0,-0.467 -0.13,-0.84 -0.39,-1.12c-0.26,-0.287 -0.62,-0.43 -1.08,-0.43c-0.18,0 -0.35,0.023 -0.51,0.07c-0.16,0.047 -0.3,0.117 -0.42,0.21c-0.12,0.087 -0.22,0.197 -0.29,0.33c-0.07,0.127 -0.1,0.277 -0.1,0.45v1.86c0,0.173 0.03,0.327 0.1,0.46c0.07,0.127 0.17,0.237 0.29,0.33c0.12,0.087 0.26,0.153 0.42,0.2c0.16,0.047 0.33,0.07 0.51,0.07zM200.22,62c-0.39,0 -0.68,-0.11 -0.87,-0.33c-0.18,-0.22 -0.27,-0.503 -0.27,-0.85v-3.3h-1.72v-0.68h1.28c0.17,0 0.29,-0.033 0.36,-0.1c0.07,-0.073 0.11,-0.197 0.11,-0.37v-1.35h0.77v1.82h2.35v0.68h-2.35v3.8h2.35v0.68zM206.28,55.7c-0.23,0 -0.39,-0.047 -0.49,-0.14c-0.09,-0.1 -0.14,-0.223 -0.14,-0.37v-0.16c0,-0.147 0.05,-0.267 0.14,-0.36c0.1,-0.1 0.26,-0.15 0.49,-0.15c0.24,0 0.4,0.05 0.49,0.15c0.1,0.093 0.14,0.213 0.14,0.36v0.16c0,0.147 -0.04,0.27 -0.14,0.37c-0.09,0.093 -0.25,0.14 -0.49,0.14zM204.02,61.32h1.86v-3.8h-1.86v-0.68h2.66v4.48h1.74v0.68h-4.4zM212.21,62c-0.39,0 -0.68,-0.11 -0.87,-0.33c-0.18,-0.22 -0.27,-0.503 -0.27,-0.85v-3.3h-1.72v-0.68h1.28c0.17,0 0.29,-0.033 0.36,-0.1c0.07,-0.073 0.11,-0.197 0.11,-0.37v-1.35h0.77v1.82h2.35v0.68h-2.35v3.8h2.35v0.68zM218.21,62c-0.4,0 -0.69,-0.11 -0.87,-0.33c-0.18,-0.22 -0.27,-0.503 -0.27,-0.85v-3.3h-1.72v-0.68h1.28c0.17,0 0.29,-0.033 0.36,-0.1c0.07,-0.073 0.11,-0.197 0.11,-0.37v-1.35h0.77v1.82h2.35v0.68h-2.35v3.8h2.35v0.68zM221.75,61.32h1.8v-6.04h-1.8v-0.68h2.6v6.72h1.8v0.68h-4.4zM230.04,62.12c-0.37,0 -0.71,-0.063 -1.01,-0.19c-0.29,-0.127 -0.55,-0.307 -0.76,-0.54c-0.21,-0.24 -0.37,-0.523 -0.48,-0.85c-0.11,-0.333 -0.17,-0.703 -0.17,-1.11c0,-0.413 0.06,-0.787 0.17,-1.12c0.12,-0.333 0.28,-0.617 0.49,-0.85c0.21,-0.24 0.45,-0.423 0.74,-0.55c0.29,-0.127 0.62,-0.19 0.97,-0.19c0.35,0 0.66,0.063 0.94,0.19c0.29,0.127 0.53,0.303 0.73,0.53c0.2,0.22 0.35,0.483 0.46,0.79c0.11,0.307 0.16,0.643 0.16,1.01v0.38h-3.82v0.24c0,0.227 0.04,0.437 0.11,0.63c0.07,0.193 0.18,0.36 0.31,0.5c0.14,0.14 0.31,0.25 0.5,0.33c0.2,0.073 0.42,0.11 0.66,0.11c0.35,0 0.65,-0.08 0.9,-0.24c0.25,-0.16 0.45,-0.38 0.58,-0.66l0.59,0.4c-0.15,0.347 -0.41,0.633 -0.77,0.86c-0.35,0.22 -0.79,0.33 -1.3,0.33zM229.99,57.38c-0.22,0 -0.42,0.04 -0.61,0.12c-0.19,0.08 -0.35,0.19 -0.49,0.33c-0.13,0.14 -0.24,0.307 -0.32,0.5c-0.07,0.187 -0.11,0.393 -0.11,0.62v0.07h2.96v-0.11c0,-0.227 -0.04,-0.433 -0.11,-0.62c-0.07,-0.187 -0.16,-0.347 -0.29,-0.48c-0.12,-0.14 -0.27,-0.247 -0.45,-0.32c-0.17,-0.073 -0.37,-0.11 -0.58,-0.11zM235.52,60.64h1.29l-1.15,2.77h-0.67zM149.77,71.32h1.51v-3.8h-1.51v-0.68h2.31v1.3h0.05c0.11,-0.407 0.31,-0.723 0.6,-0.95c0.3,-0.233 0.68,-0.35 1.14,-0.35h0.72v0.8h-0.97c-0.46,0 -0.83,0.133 -1.12,0.4c-0.28,0.267 -0.42,0.617 -0.42,1.05v2.23h2v0.68h-4.31zM158,72.12c-0.36,0 -0.69,-0.063 -0.98,-0.19c-0.29,-0.127 -0.54,-0.307 -0.74,-0.54c-0.2,-0.24 -0.36,-0.523 -0.46,-0.85c-0.11,-0.333 -0.16,-0.707 -0.16,-1.12c0,-0.407 0.05,-0.777 0.16,-1.11c0.1,-0.333 0.26,-0.617 0.46,-0.85c0.2,-0.24 0.45,-0.423 0.74,-0.55c0.29,-0.127 0.62,-0.19 0.98,-0.19c0.36,0 0.68,0.063 0.97,0.19c0.29,0.127 0.54,0.31 0.74,0.55c0.2,0.233 0.36,0.517 0.47,0.85c0.1,0.333 0.16,0.703 0.16,1.11c0,0.413 -0.06,0.787 -0.16,1.12c-0.11,0.327 -0.27,0.61 -0.47,0.85c-0.2,0.233 -0.45,0.413 -0.74,0.54c-0.29,0.127 -0.61,0.19 -0.97,0.19zM158,71.43c0.44,0 0.8,-0.133 1.08,-0.4c0.27,-0.267 0.41,-0.68 0.41,-1.24v-0.74c0,-0.56 -0.14,-0.973 -0.41,-1.24c-0.28,-0.267 -0.64,-0.4 -1.08,-0.4c-0.45,0 -0.81,0.133 -1.08,0.4c-0.28,0.267 -0.41,0.68 -0.41,1.24v0.74c0,0.56 0.13,0.973 0.41,1.24c0.27,0.267 0.63,0.4 1.08,0.4zM161.79,71.32h1.8v-6.04h-1.8v-0.68h2.6v6.72h1.8v0.68h-4.4zM170.08,72.12c-0.38,0 -0.71,-0.063 -1.01,-0.19c-0.3,-0.127 -0.55,-0.307 -0.76,-0.54c-0.21,-0.24 -0.37,-0.523 -0.48,-0.85c-0.12,-0.333 -0.17,-0.703 -0.17,-1.11c0,-0.413 0.05,-0.787 0.17,-1.12c0.12,-0.333 0.28,-0.617 0.49,-0.85c0.2,-0.24 0.45,-0.423 0.74,-0.55c0.29,-0.127 0.61,-0.19 0.97,-0.19c0.34,0 0.66,0.063 0.94,0.19c0.28,0.127 0.53,0.303 0.73,0.53c0.2,0.22 0.35,0.483 0.46,0.79c0.1,0.307 0.16,0.643 0.16,1.01v0.38h-3.82v0.24c0,0.227 0.03,0.437 0.11,0.63c0.07,0.193 0.17,0.36 0.31,0.5c0.14,0.14 0.3,0.25 0.5,0.33c0.2,0.073 0.42,0.11 0.66,0.11c0.34,0 0.64,-0.08 0.9,-0.24c0.25,-0.16 0.44,-0.38 0.58,-0.66l0.59,0.4c-0.16,0.347 -0.41,0.633 -0.77,0.86c-0.36,0.22 -0.79,0.33 -1.3,0.33zM170.03,67.38c-0.22,0 -0.43,0.04 -0.61,0.12c-0.19,0.08 -0.35,0.19 -0.49,0.33c-0.14,0.14 -0.24,0.307 -0.32,0.5c-0.08,0.187 -0.11,0.393 -0.11,0.62v0.07h2.96v-0.11c0,-0.227 -0.04,-0.433 -0.11,-0.62c-0.07,-0.187 -0.17,-0.347 -0.29,-0.48c-0.12,-0.14 -0.27,-0.247 -0.45,-0.32c-0.18,-0.073 -0.37,-0.11 -0.58,-0.11zM179.96,72v-5.16h0.8v0.84h0.04c0.05,-0.127 0.12,-0.247 0.2,-0.36c0.08,-0.12 0.18,-0.223 0.29,-0.31c0.12,-0.087 0.26,-0.157 0.42,-0.21c0.16,-0.053 0.35,-0.08 0.56,-0.08c0.54,0 0.97,0.173 1.3,0.52c0.33,0.34 0.49,0.823 0.49,1.45v3.31h-0.8v-3.17c0,-0.473 -0.1,-0.823 -0.31,-1.05c-0.21,-0.233 -0.51,-0.35 -0.91,-0.35c-0.16,0 -0.32,0.02 -0.47,0.06c-0.15,0.04 -0.29,0.1 -0.41,0.18c-0.12,0.08 -0.22,0.183 -0.29,0.31c-0.07,0.127 -0.11,0.273 -0.11,0.44v3.58zM189.93,72c-0.32,0 -0.54,-0.08 -0.67,-0.24c-0.14,-0.16 -0.22,-0.36 -0.25,-0.6h-0.05c-0.12,0.3 -0.3,0.537 -0.55,0.71c-0.25,0.167 -0.58,0.25 -1,0.25c-0.54,0 -0.97,-0.14 -1.29,-0.42c-0.32,-0.28 -0.48,-0.663 -0.48,-1.15c0,-0.48 0.17,-0.85 0.52,-1.11c0.35,-0.26 0.92,-0.39 1.7,-0.39h1.1v-0.51c0,-0.38 -0.11,-0.663 -0.32,-0.85c-0.22,-0.193 -0.52,-0.29 -0.91,-0.29c-0.35,0 -0.63,0.07 -0.85,0.21c-0.22,0.133 -0.4,0.317 -0.53,0.55l-0.54,-0.4c0.06,-0.133 0.15,-0.263 0.27,-0.39c0.11,-0.127 0.25,-0.237 0.42,-0.33c0.16,-0.1 0.35,-0.177 0.57,-0.23c0.21,-0.06 0.45,-0.09 0.71,-0.09c0.6,0 1.08,0.153 1.44,0.46c0.36,0.307 0.54,0.733 0.54,1.28v2.84h0.72v0.7zM187.55,71.45c0.2,0 0.39,-0.023 0.56,-0.07c0.17,-0.053 0.32,-0.12 0.45,-0.2c0.12,-0.087 0.22,-0.187 0.29,-0.3c0.07,-0.12 0.11,-0.247 0.11,-0.38v-0.85h-1.1c-0.48,0 -0.83,0.067 -1.05,0.2c-0.22,0.133 -0.33,0.327 -0.33,0.58v0.21c0,0.267 0.09,0.47 0.28,0.61c0.19,0.133 0.45,0.2 0.79,0.2zM191.51,72v-5.16h0.74v0.6h0.04c0.08,-0.2 0.2,-0.37 0.34,-0.51c0.15,-0.14 0.37,-0.21 0.65,-0.21c0.3,0 0.53,0.077 0.67,0.23c0.15,0.147 0.24,0.34 0.27,0.58h0.03c0.1,-0.233 0.23,-0.427 0.4,-0.58c0.18,-0.153 0.42,-0.23 0.72,-0.23c0.42,0 0.7,0.147 0.84,0.44c0.15,0.293 0.22,0.713 0.22,1.26v3.58h-0.74v-3.45c0,-0.44 -0.04,-0.743 -0.14,-0.91c-0.08,-0.173 -0.25,-0.26 -0.49,-0.26c-0.21,0 -0.38,0.07 -0.52,0.21c-0.13,0.133 -0.2,0.34 -0.2,0.62v3.79h-0.74v-3.45c0,-0.44 -0.04,-0.743 -0.14,-0.91c-0.08,-0.173 -0.24,-0.26 -0.48,-0.26c-0.21,0 -0.39,0.07 -0.53,0.21c-0.13,0.133 -0.2,0.34 -0.2,0.62v3.79zM200.06,72.12c-0.37,0 -0.71,-0.063 -1.01,-0.19c-0.29,-0.127 -0.55,-0.307 -0.76,-0.54c-0.21,-0.24 -0.37,-0.523 -0.48,-0.85c-0.11,-0.333 -0.17,-0.703 -0.17,-1.11c0,-0.413 0.06,-0.787 0.17,-1.12c0.12,-0.333 0.28,-0.617 0.49,-0.85c0.21,-0.24 0.45,-0.423 0.74,-0.55c0.29,-0.127 0.62,-0.19 0.97,-0.19c0.35,0 0.66,0.063 0.94,0.19c0.29,0.127 0.53,0.303 0.73,0.53c0.2,0.22 0.35,0.483 0.46,0.79c0.11,0.307 0.16,0.643 0.16,1.01v0.38h-3.82v0.24c0,0.227 0.04,0.437 0.11,0.63c0.07,0.193 0.18,0.36 0.31,0.5c0.14,0.14 0.31,0.25 0.5,0.33c0.2,0.073 0.42,0.11 0.66,0.11c0.35,0 0.65,-0.08 0.9,-0.24c0.25,-0.16 0.45,-0.38 0.58,-0.66l0.59,0.4c-0.15,0.347 -0.41,0.633 -0.77,0.86c-0.35,0.22 -0.79,0.33 -1.3,0.33zM200.01,67.38c-0.22,0 -0.42,0.04 -0.61,0.12c-0.19,0.08 -0.35,0.19 -0.49,0.33c-0.13,0.14 -0.24,0.307 -0.32,0.5c-0.07,0.187 -0.11,0.393 -0.11,0.62v0.07h2.96v-0.11c0,-0.227 -0.04,-0.433 -0.11,-0.62c-0.07,-0.187 -0.16,-0.347 -0.29,-0.48c-0.12,-0.14 -0.27,-0.247 -0.45,-0.32c-0.17,-0.073 -0.37,-0.11 -0.58,-0.11z" fill="#9199A3"/>
<path id="Vector_10" d="M286.22,36.348c3.99,-16.523 -6.17,-33.15 -22.69,-37.138c-16.53,-3.988 -33.15,6.173 -37.14,22.696c-3.99,16.522 6.17,33.149 22.69,37.137c16.53,3.988 33.15,-6.173 37.14,-22.695z" fill="#063D7A"/>
<path id="Vector_11" d="M288.05,33.055c2.66,-16.131 -8.26,-31.364 -24.4,-34.023c-16.13,-2.659 -31.36,8.263 -34.02,24.394c-2.66,16.132 8.26,31.364 24.4,34.023c16.13,2.659 31.36,-8.262 34.02,-24.394z" fill="white" stroke="#063D7A" stroke-miterlimit="10"/>
<path id="Vector_12" d="M281.24,47.567c-2.75,3.197 -6.16,5.768 -9.98,7.541c-3.83,1.774 -7.99,2.708 -12.21,2.74c-4.21,0.033 -8.39,-0.837 -12.24,-2.551c-3.86,-1.714 -7.3,-4.233 -10.1,-7.387c1.2,-1.947 3.06,-3.687 5.18,-4.043c0.85,-0.146 1.69,-0.337 2.52,-0.574c0.2,-0.05 0.4,-0.106 0.59,-0.169c0.55,-0.168 1.09,-0.355 1.62,-0.561c0.27,-0.106 0.53,-0.212 0.8,-0.331c0.26,-0.119 0.58,-0.256 0.88,-0.393c0.29,-0.137 0.57,-0.287 0.85,-0.437c0.28,-0.15 0.56,-0.306 0.84,-0.468c0.27,-0.162 0.55,-0.331 0.81,-0.505c0.27,-0.175 0.45,-0.294 0.67,-0.45c0.07,-0.047 0.15,-0.1 0.22,-0.156c0.22,-0.162 0.44,-0.33 0.66,-0.499c0.26,-0.2 0.5,-0.399 0.74,-0.624c0.25,-0.225 0.48,-0.424 0.72,-0.624c0.45,-0.437 0.89,-0.898 1.31,-1.385l1.65,-0.281l0.25,-0.044l6.3,-1.079l2.05,-0.356l0.53,-0.087c0.7,1.541 2.16,2.539 3.75,3.195l0.2,0.087c0.39,0.156 0.78,0.287 1.18,0.406c2.08,0.624 4.3,0.992 6.11,2.196c2.29,1.51 3.51,4.094 4.1,6.839z" fill="#9DC1EB"/>
<path id="Vector_13" d="M255.25,36.172c-1.05,1.217 -2.46,2.071 -4.03,2.439c-1.57,0.369 -3.22,0.234 -4.7,-0.386c-0.13,0.435 -0.17,0.892 -0.11,1.342c0.06,0.45 0.2,0.884 0.44,1.273c-0.5,-0.264 -0.91,-0.654 -1.21,-1.131c-0.3,-0.476 -0.46,-1.023 -0.48,-1.584c-0.39,0.858 -0.63,1.776 -0.72,2.715c-2.95,0.568 -6.09,-1.155 -7.55,-3.782c-0.69,-1.348 -1.06,-2.835 -1.09,-4.35c-0.03,-1.514 0.29,-3.014 0.93,-4.386l-1.66,2.178c-0.53,-1.317 -0.09,-2.833 0.63,-4.05c0.71,-1.216 1.73,-2.252 2.46,-3.469c1.93,-3.257 1.67,-7.301 2.29,-11.032c0.14,-1.408 0.66,-2.75 1.5,-3.888c0.9,-1.073 2.46,-1.716 3.74,-1.198c0.23,-1.753 2.44,-2.571 4.08,-3.239c2.72,-1.092 5.62,-2.165 8.5,-1.659c4.63,0.811 7.71,5.36 12.13,6.914c2.29,0.804 4.8,0.755 7.14,1.397c2.34,0.643 4.71,2.353 4.86,4.774l-2.5,-1.304c1.81,2.337 2.87,5.169 3.03,8.122c0.17,2.952 -0.57,5.884 -2.11,8.407l-0.47,-2.302c0.26,1.117 -0.66,2.14 -1.56,2.858c-2.46,1.965 -5.56,3.419 -8.69,3.057c-0.93,-0.106 -1.83,-0.368 -2.75,-0.517c-2.69,-0.404 -5.44,0.138 -7.77,1.535c-1.29,0.826 -2.79,1.266 -4.33,1.266z" fill="#063D7A"/>
<path id="Vector_14" d="M256.35,30.912c-0.89,1.248 -2.33,4.992 -2.67,8.112c-0.34,3.12 0,8.237 0.78,8.237c0.78,0 2.12,-6.677 2.12,-6.677c0,0 0.55,2.558 1.87,3.338c1.32,0.78 3.67,6.003 3.67,6.003c0,0 3.12,-5.672 3.55,-7.563c0.44,-1.891 0.57,-2.777 1.12,-2.115c0.99,1.558 1.85,3.196 2.56,4.898c0.56,1.336 1,-4.368 0.22,-7.488c-0.78,-3.12 -2.56,-5.223 -2.78,-6.003c-0.22,-0.78 -1.45,-1.56 -1.45,-1.56c-4.31,-4.524 -8.1,-0.405 -8.99,0.818z" fill="white" stroke="#063D7A" stroke-linecap="round" stroke-linejoin="round"/>
<path id="Vector_15" d="M255.46,32.803c0.88,2.006 1.55,4.097 2,6.24c0.56,3.007 4.12,9.572 4.68,10.901c0.55,1.329 2.22,-4.225 2.89,-8.006c0.66,-3.782 -0.15,-12.942 -0.15,-12.942c-3.12,4.106 -9.42,3.807 -9.42,3.807z" fill="white" stroke="#063D7A" stroke-linecap="round" stroke-linejoin="round"/>
<path id="Vector_16" d="M248.94,12.141c-0.56,1.339 -1.18,2.647 -1.87,3.919c-0.58,1.129 -1.38,2.315 -1.25,3.638c0.13,1.323 3.8,8.736 5.36,10.427c1.56,1.691 6.94,5.909 9.26,4.331c5.13,-3.495 4.67,-13.847 4.12,-15.538c-0.55,-1.691 -1.24,-1.248 -1.24,-1.248c-0.29,0.181 -1.03,-0.418 -1.31,-0.53c-1.58,-0.668 -3.32,-0.712 -4.92,-1.367c-1.72,-0.673 -3.26,-1.725 -4.52,-3.076c-1,-1.124 -1.87,-2.415 -3.41,-2.84c0.47,0.131 0.18,1.223 -0.22,2.284z" fill="white" stroke="#063D7A" stroke-linecap="round" stroke-linejoin="round"/>
<path id="Vector_17" d="M249.97,20.766c0.17,-0.278 0.39,-0.519 0.65,-0.707c0.27,-0.189 0.57,-0.321 0.88,-0.388c0.32,-0.068 0.64,-0.069 0.96,-0.004c0.32,0.065 0.62,0.195 0.88,0.382" stroke="#063D7A" stroke-linecap="round" stroke-linejoin="round"/>
<path id="Vector_18" d="M259.58,17.365c-2.94,-0.917 -3.38,1.373 -3.38,1.373" stroke="#063D7A" stroke-linecap="round" stroke-linejoin="round"/>
<path id="Vector_19" d="M253.46,22.8c0.12,0.506 0.03,0.961 -0.2,1.017c-0.23,0.056 -0.52,-0.312 -0.62,-0.824c-0.11,-0.511 -0.03,-0.96 0.2,-1.017c0.23,-0.056 0.5,0.312 0.62,0.824z" fill="#063D7A"/>
<path id="Vector_20" d="M259.48,21.297c0.12,0.511 0.03,0.967 -0.2,1.023c-0.23,0.056 -0.52,-0.318 -0.63,-0.824c-0.1,-0.505 -0.03,-0.967 0.2,-1.017c0.23,-0.05 0.5,0.325 0.63,0.818z" fill="#063D7A"/>
<path id="Vector_21" d="M256.22,20.172c0,3.02 2,4.948 1.87,6.015c0,0.025 -0.01,0.048 -0.02,0.068c-0.02,0.021 -0.03,0.038 -0.05,0.05c-0.03,0.012 -0.05,0.019 -0.07,0.02c-0.03,0.002 -0.05,-0.003 -0.08,-0.013c-0.46,-0.243 -1.01,-0.624 -1.46,-0.861" stroke="#063D7A" stroke-linecap="round" stroke-linejoin="round"/>
<path id="Vector_22" d="M254.25,28.035c0.44,0.551 1.02,0.974 1.68,1.226c0.65,0.251 1.37,0.321 2.06,0.203" stroke="#063D7A" stroke-linecap="round" stroke-linejoin="round"/>
<path id="Vector_23" d="M256.05,34.226c0,0 2.65,6.109 4.84,5.578c2.2,-0.53 3.49,-10.558 3.49,-10.558c0,0 -2.61,4.898 -4.78,5.66c-1.81,0.636 -3.55,-0.68 -3.55,-0.68z" fill="#063D7A"/>
<path id="Vector_24" d="M253.81,38.062c-0.23,0.219 -0.47,0.437 -0.71,0.625c-0.24,0.187 -0.49,0.418 -0.74,0.624c-0.21,0.174 -0.44,0.336 -0.66,0.499c-0.08,0.056 -0.15,0.108 -0.23,0.156c-0.22,0.162 -0.43,0.305 -0.66,0.449c-0.22,0.144 -0.54,0.349 -0.82,0.505c-0.28,0.156 -0.55,0.325 -0.83,0.468c-0.28,0.144 -0.57,0.3 -0.86,0.437c-0.28,0.138 -0.58,0.275 -0.88,0.393c-0.3,0.119 -0.52,0.231 -0.79,0.331c-0.53,0.206 -1.07,0.393 -1.62,0.562c-0.2,0.062 -0.4,0.118 -0.59,0.168c-0.83,0.237 -1.67,0.429 -2.53,0.574c-2.11,0.356 -3.98,2.097 -5.17,4.044" stroke="#063D7A" stroke-linecap="round" stroke-linejoin="round"/>
<path id="Vector_25" d="M281.24,47.567c-0.59,-2.746 -1.81,-5.329 -4.09,-6.864c-1.81,-1.205 -4.03,-1.567 -6.11,-2.197c-0.39,-0.118 -0.79,-0.249 -1.17,-0.405l-0.21,-0.081" stroke="#063D7A" stroke-linecap="round" stroke-linejoin="round"/>
<path id="Vector_26" d="M263.5,53.494c0,0.693 -0.38,1.248 -0.86,1.248c-0.47,0 -0.86,-0.555 -0.86,-1.248c0,-0.693 0.39,-1.248 0.86,-1.248c0.48,0 0.86,0.555 0.86,1.248z" fill="#063D7A"/>
<path id="Vector_27" d="M245.01,47.666c1.46,2.57 2.54,5.335 3.2,8.212" stroke="#063D7A" stroke-linecap="round" stroke-linejoin="round"/>
<path id="Vector_28" d="M247.95,47.959l0.83,4.53" stroke="#063D7A" stroke-linecap="round" stroke-linejoin="round"/>
<path id="Vector_29" d="M288.05,33.055c2.66,-16.131 -8.26,-31.364 -24.4,-34.023c-16.13,-2.659 -31.36,8.263 -34.02,24.394c-2.66,16.132 8.26,31.364 24.4,34.023c16.13,2.659 31.36,-8.262 34.02,-24.394z" stroke="#063D7A" stroke-miterlimit="10"/>
</g>
<g id="freepik--Plant--inject-85">
<path id="Vector_30" d="M201.05,219.266v21.946c0,1.572 13.59,5.266 30.88,5.266c17.3,0 31.73,-3.694 31.73,-5.266v-21.946z" fill="white" stroke="#063D7A" stroke-miterlimit="10"/>
<g id="Vector_31">
<path d="M201.05,232.875c0,1.572 13.59,5.273 30.88,5.273c17.3,0 31.73,-3.701 31.73,-5.273" fill="white"/>
<path d="M201.05,232.875c0,1.572 13.59,5.273 30.88,5.273c17.3,0 31.73,-3.701 31.73,-5.273" stroke="#063D7A" stroke-width="2" stroke-miterlimit="10"/>
</g>
<path id="Vector_32" d="M263.66,219.265c0,0.687 -2.65,1.56 -7.08,2.322c-16.06,2.412 -32.4,2.412 -48.46,0c-4.42,-0.762 -7.07,-1.635 -7.07,-2.322c0,-1.578 14.01,-2.845 31.3,-2.845c17.28,0 31.31,1.267 31.31,2.845z" fill="#9DC1EB" stroke="#063D7A" stroke-miterlimit="10"/>
<path id="Vector_33" d="M256.58,221.599c-16.06,2.413 -32.4,2.413 -48.46,0c4.56,-0.798 13.73,-1.341 24.23,-1.341c10.5,0 19.67,0.53 24.23,1.341z" fill="#063D7A"/>
<g id="freepik--Plants--inject-83--inject-85">
<path id="Vector_34" d="M243.55,122.346c0,0 0,-3.232 -4.53,-7.75c-4.52,-4.518 -7.42,-7.114 -7.42,-7.114c0,0 -2.27,7.432 1.93,11.962c3.09,3.188 6.44,6.11 10.02,8.736z" fill="#9DC1EB"/>
<path id="Vector_35" d="M236.98,142.526c0,0 0,-3.233 -4.52,-7.75c-4.52,-4.518 -7.43,-7.114 -7.43,-7.114c0,0 -2.26,7.432 1.94,11.956c3.07,3.187 6.41,6.11 9.98,8.736z" fill="#9DC1EB"/>
<path id="Vector_36" d="M243.26,127.856c0,0 0.35,-3.22 5.32,-7.238c4.98,-4.019 8.11,-6.284 8.11,-6.284c0,0 1.47,7.632 -3.18,11.681c-3.4,2.833 -7.04,5.375 -10.86,7.601z" fill="#9DC1EB"/>
<path id="Vector_37" d="M235.34,151.712c0,0 0.67,-3.157 6.04,-6.633c5.38,-3.475 8.74,-5.397 8.74,-5.397c0,0 0.65,7.743 -4.4,11.288c-3.69,2.466 -7.57,4.62 -11.62,6.44z" fill="#9DC1EB"/>
<path id="Vector_38" d="M236.83,177.664c0,0 0,-3.232 4.51,-7.756c4.52,-4.524 7.44,-7.107 7.44,-7.107c0,0 2.26,7.432 -1.94,11.949c-3.08,3.189 -6.43,6.112 -10.01,8.736z" fill="#9DC1EB"/>
<path id="Vector_39" d="M236.75,184.004c0,0 0.46,-3.201 -3.37,-8.318c-3.84,-5.117 -6.33,-8.112 -6.33,-8.112c0,0 -3.3,7.026 0.22,12.081c2.6,3.59 5.5,6.955 8.67,10.059z" fill="#9DC1EB"/>
<path id="Vector_40" d="M232.28,202.823c0,0 0,-3.233 4.53,-7.75c4.53,-4.518 7.43,-7.114 7.43,-7.114c0,0 2.24,7.432 -1.94,11.956c-3.09,3.185 -6.44,6.107 -10.02,8.736z" fill="#9DC1EB"/>
<path id="Vector_41" d="M244.26,214.53c-1.72,3.034 -3.64,5.953 -5.74,8.736c-0.59,0 -1.19,0.044 -1.79,0.056h-0.51l-0.87,-3.32l-0.05,-0.187c-0.16,-0.986 -0.12,-1.995 0.13,-2.964c0.27,-1.326 0.71,-2.612 1.32,-3.825c0.27,-0.58 0.62,-1.198 0.97,-1.841c3.23,-5.497 5.38,-8.736 5.38,-8.736c0,0 4.08,6.615 1.16,12.081z" fill="#9DC1EB"/>
<path id="Vector_42" d="M236.07,223.354c-0.31,-1.043 -0.62,-2.11 -0.93,-3.177c-0.24,-0.83 -0.47,-1.659 -0.7,-2.496c-0.23,-0.836 -0.43,-1.591 -0.62,-2.365c-0.69,-2.602 -1.25,-4.935 -1.53,-6.602c-0.28,-1.783 -0.28,-3.601 0,-5.385c0.12,-0.848 0.3,-1.703 0.51,-2.571c0.79,-3.294 2.07,-6.82 3.02,-11.169c0.2,-0.924 0.39,-1.872 0.55,-2.871v-0.118c0.09,-0.555 0.18,-1.13 0.25,-1.716c0,-0.15 0.04,-0.293 0.05,-0.443c0.03,-0.268 0.06,-0.537 0.08,-0.811v-0.032c0.03,-0.299 0.05,-0.624 0.06,-0.898c0.06,-1.168 0.06,-2.339 0,-3.507c-0.37,-7.862 -3,-15.5 -2.49,-21.946c0.05,-0.732 0.16,-1.46 0.31,-2.178c0.38,-1.749 0.89,-3.471 1.5,-5.154c0.2,-0.58 0.42,-1.154 0.62,-1.729c0,-0.037 0,-0.074 0.05,-0.118c0.04,-0.044 0.08,-0.218 0.12,-0.325c2.03,-5.079 4.52,-9.877 5.74,-16.224c0.15,-0.823 0.29,-1.641 0.41,-2.464v-0.032c0.05,-0.361 0.11,-0.723 0.16,-1.085c0,-0.2 0.06,-0.406 0.08,-0.624c0.07,-0.475 0.12,-0.961 0.17,-1.436c0.18,-1.466 0.31,-2.939 0.42,-4.411" stroke="#063D7A" stroke-linecap="round" stroke-linejoin="round"/>
<path id="Vector_43" d="M243.22,129.996l4.88,-3.738" stroke="#063D7A" stroke-linecap="round" stroke-linejoin="round"/>
<path id="Vector_44" d="M243.45,125.69l-2.04,-3.631" stroke="#063D7A" stroke-linecap="round" stroke-linejoin="round"/>
<path id="Vector_45" d="M234.94,154.713c0,0 4.08,-3.064 8.28,-6.121" stroke="#063D7A" stroke-linecap="round" stroke-linejoin="round"/>
<path id="Vector_46" d="M236.98,148.343c0,0 -3.4,-6.665 -7.25,-11.095" stroke="#063D7A" stroke-linecap="round" stroke-linejoin="round"/>
<path id="Vector_47" d="M236.99,182.287c2.33,-4.287 5.27,-8.212 8.74,-11.65" stroke="#063D7A" stroke-linecap="round" stroke-linejoin="round"/>
<path id="Vector_48" d="M236.19,186.793c-1.24,-2.915 -2.72,-5.721 -4.42,-8.387c-2.38,-3.513 -2.72,-3.968 -2.72,-3.968" stroke="#063D7A" stroke-linecap="round" stroke-linejoin="round"/>
<path id="Vector_49" d="M232.28,208.738c1.04,-2.566 2.27,-5.051 3.68,-7.432c1.41,-2.208 3.01,-4.296 4.77,-6.24" stroke="#063D7A" stroke-linecap="round" stroke-linejoin="round"/>
<path id="Vector_50" d="M236.73,223.341c0.06,-1.746 0.49,-3.459 1.25,-5.03c1.73,-3.288 3.63,-7.6 4.43,-9.297" stroke="#063D7A" stroke-linecap="round" stroke-linejoin="round"/>
<path id="Vector_51" d="M213.93,165.515c0,0 -0.35,-2.028 1.99,-5.354c2.35,-3.326 3.89,-5.266 3.89,-5.266c0,0 2.23,4.411 0.08,7.712c-1.59,2.33 -3.37,4.522 -5.33,6.552z" fill="#9DC1EB"/>
<path id="Vector_52" d="M220.24,177.452c0,0 -0.35,-2.028 1.99,-5.347c2.35,-3.32 3.89,-5.273 3.89,-5.273c0,0 2.22,4.418 0.08,7.706c-1.58,2.331 -3.35,4.525 -5.3,6.559z" fill="#9DC1EB"/>
<path id="Vector_53" d="M214.7,168.934c0,0 -0.57,-1.985 -4.12,-3.963c-3.54,-1.978 -5.78,-3.051 -5.78,-3.051c0,0 -0.09,4.942 3.3,6.964c2.44,1.412 5,2.614 7.64,3.594z" fill="#9DC1EB"/>
<path id="Vector_54" d="M222.26,183.012c0,0 -0.76,-1.903 -4.51,-3.5c-3.74,-1.598 -6.08,-2.434 -6.08,-2.434c0,0 0.43,4.923 3.98,6.596c2.58,1.146 5.25,2.074 7.98,2.777z" fill="#9DC1EB"/>
<path id="Vector_55" d="M224.15,199.472c0,0 -0.35,-2.035 -3.68,-4.368c-3.32,-2.334 -5.43,-3.651 -5.43,-3.651c0,0 -0.62,4.905 2.5,7.288c2.29,1.65 4.7,3.111 7.23,4.368z" fill="#9DC1EB"/>
<path id="Vector_56" d="M224.88,203.435c0,0 -0.62,-1.959 1.21,-5.578c1.84,-3.619 3.12,-5.753 3.12,-5.753c0,0 2.84,4.056 1.16,7.612c-1.25,2.534 -2.72,4.959 -4.37,7.251z" fill="#9DC1EB"/>
<path id="Vector_57" d="M230.56,219.778c0,0 0.24,-2.041 3.45,-4.605c3.22,-2.565 5.22,-3.95 5.22,-3.95c0,0 0.89,4.861 -2.09,7.413c-2.19,1.789 -4.52,3.392 -6.97,4.792z" fill="#9DC1EB"/>
<path id="Vector_58" d="M229.72,214.735c0,0 -0.35,-2.022 -3.68,-4.368c-3.32,-2.346 -5.42,-3.65 -5.42,-3.65c0,0 -0.63,4.904 2.49,7.282c2.29,1.654 4.71,3.116 7.23,4.368z" fill="#9DC1EB"/>
<path id="Vector_59" d="M229.05,223.365c-0.85,0 -1.69,-0.037 -2.52,-0.068c-1.09,-0.031 -2.15,-0.081 -3.19,-0.131c-2.2,-3.077 -0.44,-7.488 -0.44,-7.488c0,0 1.7,1.784 4.32,4.911c0.73,0.841 1.35,1.775 1.83,2.776z" fill="#9DC1EB"/>
<path id="Vector_60" opacity="0.2" d="M243.55,122.346c0,0 0,-3.232 -4.53,-7.75c-4.52,-4.518 -7.42,-7.114 -7.42,-7.114c0,0 -2.27,7.432 1.93,11.962c3.09,3.188 6.44,6.11 10.02,8.736z" fill="#021429"/>
<path id="Vector_61" opacity="0.2" d="M236.98,142.526c0,0 0,-3.233 -4.52,-7.75c-4.52,-4.518 -7.43,-7.114 -7.43,-7.114c0,0 -2.26,7.432 1.94,11.956c3.07,3.187 6.41,6.11 9.98,8.736z" fill="#021429"/>
<path id="Vector_62" opacity="0.2" d="M243.26,127.856c0,0 0.35,-3.22 5.32,-7.238c4.98,-4.019 8.11,-6.284 8.11,-6.284c0,0 1.47,7.632 -3.18,11.681c-3.4,2.833 -7.04,5.375 -10.86,7.601z" fill="#021429"/>
<path id="Vector_63" opacity="0.2" d="M235.34,151.712c0,0 0.67,-3.157 6.04,-6.633c5.38,-3.475 8.74,-5.397 8.74,-5.397c0,0 0.65,7.743 -4.4,11.288c-3.69,2.466 -7.57,4.62 -11.62,6.44z" fill="#021429"/>
<path id="Vector_64" opacity="0.2" d="M236.83,177.664c0,0 0,-3.232 4.51,-7.756c4.52,-4.524 7.44,-7.107 7.44,-7.107c0,0 2.26,7.432 -1.94,11.949c-3.08,3.189 -6.43,6.112 -10.01,8.736z" fill="#021429"/>
<path id="Vector_65" opacity="0.2" d="M232.28,202.823c0,0 0,-3.233 4.53,-7.75c4.53,-4.518 7.43,-7.114 7.43,-7.114c0,0 2.24,7.432 -1.94,11.956c-3.09,3.185 -6.44,6.107 -10.02,8.736z" fill="#021429"/>
<path id="Vector_66" opacity="0.2" d="M213.93,165.515c0,0 -0.35,-2.028 1.99,-5.354c2.35,-3.326 3.89,-5.266 3.89,-5.266c0,0 2.23,4.411 0.08,7.712c-1.59,2.33 -3.37,4.522 -5.33,6.552z" fill="#021429"/>
<path id="Vector_67" opacity="0.2" d="M233.38,175.686c-3.84,-5.123 -6.33,-8.112 -6.33,-8.112c0,0 -0.14,0.3 -0.34,0.818c-0.15,-0.545 -0.35,-1.075 -0.59,-1.585c0,0 -1.54,1.947 -3.89,5.272c-2.34,3.326 -1.99,5.348 -1.99,5.348l0.62,3.644c1.76,-1.827 3.37,-3.783 4.84,-5.853c0.12,1.59 0.66,3.119 1.56,4.437c2.61,3.59 5.51,6.954 8.68,10.059l0.81,-5.735c0,0 0.46,-3.176 -3.37,-8.293z" fill="#021429"/>
<path id="Vector_68" opacity="0.2" d="M214.7,168.934c0,0 -0.57,-1.985 -4.12,-3.963c-3.54,-1.978 -5.78,-3.051 -5.78,-3.051c0,0 -0.09,4.942 3.3,6.964c2.44,1.412 5,2.614 7.64,3.594z" fill="#021429"/>
<path id="Vector_69" opacity="0.2" d="M222.26,183.012c0,0 -0.76,-1.903 -4.51,-3.5c-3.74,-1.598 -6.08,-2.434 -6.08,-2.434c0,0 0.43,4.923 3.98,6.596c2.58,1.146 5.25,2.074 7.98,2.777z" fill="#021429"/>
<path id="Vector_70" opacity="0.2" d="M224.15,199.472c0,0 -0.35,-2.035 -3.68,-4.368c-3.32,-2.334 -5.43,-3.651 -5.43,-3.651c0,0 -0.62,4.905 2.5,7.288c2.29,1.65 4.7,3.111 7.23,4.368z" fill="#021429"/>
<path id="Vector_71" opacity="0.2" d="M224.88,203.435c0,0 -0.62,-1.959 1.21,-5.578c1.84,-3.619 3.12,-5.753 3.12,-5.753c0,0 2.84,4.056 1.16,7.612c-1.25,2.534 -2.72,4.959 -4.37,7.251z" fill="#021429"/>
<path id="Vector_72" opacity="0.2" d="M243.1,202.449c0,0 -2.15,3.264 -5.38,8.736c-0.38,0.624 -0.7,1.248 -0.97,1.841c-0.77,0.58 -1.69,1.285 -2.74,2.122c-3.21,2.564 -3.45,4.605 -3.45,4.605l-0.39,3.65c1.8,-1.027 3.53,-2.162 5.18,-3.401l0.87,3.32h0.51c0.63,0 1.2,-0.031 1.79,-0.056c2.1,-2.783 4.02,-5.702 5.74,-8.736c2.92,-5.466 -1.16,-12.081 -1.16,-12.081z" fill="#021429"/>
<path id="Vector_73" opacity="0.2" d="M229.72,214.735c0,0 -0.35,-2.022 -3.68,-4.368c-3.32,-2.346 -5.42,-3.65 -5.42,-3.65c0,0 -0.63,4.904 2.49,7.282c2.29,1.654 4.71,3.116 7.23,4.368z" fill="#021429"/>
<path id="Vector_74" opacity="0.2" d="M229.05,223.365c-0.85,0 -1.69,-0.037 -2.52,-0.068c-1.09,-0.031 -2.15,-0.081 -3.19,-0.131c-2.2,-3.077 -0.44,-7.488 -0.44,-7.488c0,0 1.7,1.784 4.32,4.911c0.73,0.841 1.35,1.775 1.83,2.776z" fill="#021429"/>
<path id="Vector_75" d="M230.07,223.379c0.18,-1.953 0.3,-3.744 0.29,-4.917c-0.02,-1.135 -0.21,-2.259 -0.58,-3.332c-0.17,-0.537 -0.38,-1.08 -0.62,-1.629c-0.86,-1.966 -2.04,-4.025 -3.09,-6.627c-0.26,-0.624 -0.51,-1.285 -0.74,-1.991c-0.1,-0.287 -0.2,-0.586 -0.29,-0.886c0,-0.043 0,-0.087 0,-0.131c-0.07,-0.218 -0.12,-0.436 -0.19,-0.655c-0.05,-0.193 -0.1,-0.393 -0.14,-0.624c-0.14,-0.624 -0.25,-1.285 -0.34,-1.934c-0.66,-5.03 0.18,-10.196 -0.87,-14.24c-0.11,-0.451 -0.26,-0.895 -0.43,-1.329c-0.42,-1.051 -0.92,-2.073 -1.49,-3.058c-0.19,-0.349 -0.39,-0.686 -0.62,-1.017c-0.01,-0.023 -0.02,-0.046 -0.03,-0.068c-0.05,-0.075 -0.08,-0.138 -0.13,-0.2c-1.81,-2.97 -3.9,-5.703 -5.35,-9.547c-0.19,-0.5 -0.36,-1.005 -0.53,-1.523c-0.01,-0.026 -0.02,-0.053 -0.03,-0.081c-0.06,-0.193 -0.13,-0.381 -0.18,-0.58c-0.04,-0.1 -0.08,-0.206 -0.11,-0.312c-0.1,-0.312 -0.19,-0.624 -0.29,-0.936c-0.26,-0.899 -0.51,-1.804 -0.73,-2.721" stroke="#063D7A" stroke-linecap="round" stroke-linejoin="round"/>
<path id="Vector_76" d="M214.97,170.269l-3.47,-1.816" stroke="#063D7A" stroke-linecap="round" stroke-linejoin="round"/>
<path id="Vector_77" d="M214.36,167.6l0.88,-2.496" stroke="#063D7A" stroke-linecap="round" stroke-linejoin="round"/>
<path id="Vector_78" d="M222.84,184.871c0,0 -2.88,-1.473 -5.86,-2.939" stroke="#063D7A" stroke-linecap="round" stroke-linejoin="round"/>
<path id="Vector_79" d="M220.9,181.095c0.84,-2.686 1.96,-5.278 3.33,-7.738" stroke="#063D7A" stroke-linecap="round" stroke-linejoin="round"/>
<path id="Vector_80" d="M224.55,202.368c-1.93,-2.433 -4.2,-4.572 -6.74,-6.352" stroke="#063D7A" stroke-linecap="round" stroke-linejoin="round"/>
<path id="Vector_81" d="M225.54,205.126c0.46,-1.967 1.09,-3.891 1.87,-5.753c1.12,-2.459 1.25,-2.783 1.25,-2.783" stroke="#063D7A" stroke-linecap="round" stroke-linejoin="round"/>
<path id="Vector_82" d="M230.21,221.962c1.13,-1.396 2.39,-2.689 3.75,-3.863c0.86,-0.637 1.67,-1.342 2.42,-2.109" stroke="#063D7A" stroke-linecap="round" stroke-linejoin="round"/>
<path id="Vector_83" d="M230.36,218.48c-0.93,-1.499 -1.97,-2.924 -3.12,-4.262c-1.12,-1.229 -2.35,-2.363 -3.66,-3.388" stroke="#063D7A" stroke-linecap="round" stroke-linejoin="round"/>
<path id="Vector_84" d="M224.05,219.729c0.48,0.686 1.45,2.121 2.5,3.563" stroke="#063D7A" stroke-linecap="round" stroke-linejoin="round"/>
</g>
</g>
<g id="freepik--Table--inject-85">
<path id="Vector_85" d="M171.69,236.638c-5.66,-3.975 -12.2,-10.408 -14.35,-19.775c-1.72,4.456 -4.05,8.655 -6.91,12.48c-4.04,5.227 -9.63,9.036 -15.98,10.877c-1.55,0.474 -2.42,1.004 -2.42,1.566c0,1.99 10.97,3.607 24.5,3.607c13.54,0 24.51,-1.617 24.51,-3.607c0,-0.487 -0.67,-0.961 -1.87,-1.385c-2.65,-0.907 -5.17,-2.173 -7.48,-3.763z" fill="white" stroke="#063D7A" stroke-miterlimit="10"/>
<path id="Vector_86" d="M154.86,135.486l-5.07,85.757l6.91,10.015l6.82,-8.649l-3.93,-86.886z" fill="white" stroke="#063D7A" stroke-miterlimit="10"/>
<path id="Vector_87" d="M184.79,128.148h-67.94v4.481c0,3.413 18.01,6.184 40.22,6.184c22.22,0 40.23,-2.771 40.23,-6.184v-4.481z" fill="#063D7A"/>
<path id="Vector_88" d="M157.07,134.333c22.22,0 40.23,-2.769 40.23,-6.184c0,-3.416 -18.01,-6.184 -40.23,-6.184c-22.21,0 -40.22,2.768 -40.22,6.184c0,3.415 18.01,6.184 40.22,6.184z" fill="#9DC1EB"/>
<path id="Vector_89" d="M157.07,134.333c22.22,0 40.23,-2.769 40.23,-6.184c0,-3.416 -18.01,-6.184 -40.23,-6.184c-22.21,0 -40.22,2.768 -40.22,6.184c0,3.415 18.01,6.184 40.22,6.184z" stroke="#063D7A" stroke-linecap="round" stroke-linejoin="round"/>
<g id="freepik--Plant--inject-1--inject-2--inject-85">
<path id="Vector_90" d="M184.51,115.77h-20.59c0,0 0,5.528 2.91,12.76c0,1.386 3.32,2.496 7.43,2.496c4.1,0 7.42,-1.117 7.42,-2.496c0.01,-0.068 0.01,-0.137 0,-0.206c2.8,-7.132 2.83,-12.554 2.83,-12.554z" fill="white" stroke="#063D7A" stroke-linecap="round" stroke-linejoin="round"/>
<path id="Vector_91" d="M174.28,118.77c5.71,0 10.34,-1.343 10.34,-3.001c0,-1.658 -4.63,-3.001 -10.34,-3.001c-5.71,0 -10.34,1.343 -10.34,3.001c0,1.658 4.63,3.001 10.34,3.001z" fill="white" stroke="#063D7A" stroke-linecap="round" stroke-linejoin="round"/>
<path id="Vector_92" d="M174.28,118.277c5.13,0 9.28,-1.123 9.28,-2.509c0,-1.385 -4.15,-2.508 -9.28,-2.508c-5.12,0 -9.28,1.123 -9.28,2.508c0,1.386 4.16,2.509 9.28,2.509z" fill="white" stroke="#063D7A" stroke-linecap="round" stroke-linejoin="round"/>
<path id="Vector_93" d="M165.88,116.83c1.48,0.855 4.68,1.442 8.4,1.442c3.72,0 6.92,-0.587 8.4,-1.442c-1.48,-0.849 -4.68,-1.441 -8.4,-1.441c-3.71,0 -6.92,0.592 -8.4,1.441z" fill="#063D7A" stroke="#063D7A" stroke-linecap="round" stroke-linejoin="round"/>
<path id="Vector_94" d="M169.96,117.067c0,0 -2.69,-6.714 -1.9,-8.505c0.78,-1.791 3.35,-1.566 4.25,0.225c0.9,1.791 1.34,8.505 1.34,8.505c0,0 -2.67,0.899 -3.69,-0.225z" fill="#9DC1EB" stroke="#063D7A" stroke-miterlimit="10"/>
<path id="Vector_95" d="M172.31,117.741c0,0 -2.13,-11.856 -1.57,-14.103c0.55,-2.246 3.36,-3.026 5.37,-1.348c2.01,1.679 1.25,10.19 1.25,11.42c0,1.229 -0.11,3.806 -0.11,3.806c-1.6,0.516 -3.3,0.593 -4.94,0.225z" fill="#9DC1EB" stroke="#063D7A" stroke-miterlimit="10"/>
<path id="Vector_96" d="M176.67,117.515c0,0 -1.66,-4.592 -0.66,-6.383c0.99,-1.791 3.02,-1.117 3.02,0.337c0,1.454 0.11,4.929 -0.12,5.709c-0.22,0.78 -1.45,1.011 -2.24,0.337z" fill="#9DC1EB" stroke="#063D7A" stroke-miterlimit="10"/>
<path id="Vector_97" d="M174.22,117.391c-2.81,-10.608 -0.45,-15.893 -0.45,-15.893c0,0 3.35,5.822 1.56,15.893" stroke="#063D7A" stroke-linecap="round" stroke-linejoin="round"/>
<path id="Vector_98" d="M169.62,108.338c0,0 -2.58,0.112 1.68,8.954" stroke="#063D7A" stroke-linecap="round" stroke-linejoin="round"/>
</g>
</g>
<g id="freepik--Character--inject-85">
<path id="Vector_99" d="M108.39,237.68c-5.67,-3.507 -12.2,-9.173 -14.35,-17.428c-1.76,3.977 -4.09,7.675 -6.92,10.976c-3.97,4.649 -9.65,7.894 -15.97,9.585c-1.55,0.418 -2.43,0.886 -2.43,1.379c0,1.753 10.97,3.176 24.51,3.176c13.53,0 24.51,-1.423 24.51,-3.176c0,-0.431 -0.68,-0.849 -1.88,-1.248c-2.61,-0.77 -5.13,-1.866 -7.47,-3.264z" fill="white" stroke="#063D7A" stroke-miterlimit="10"/>
<path id="Vector_100" d="M91.56,148.555l-5.08,75.553l6.91,8.83l6.82,-7.619l-3.92,-76.552z" fill="white" stroke="#063D7A" stroke-miterlimit="10"/>
<path id="Vector_101" d="M120.96,152.025h-67.92v4.487c0,3.407 18.01,6.178 40.22,6.178c22.22,0 40.23,-2.771 40.23,-6.178v-4.487z" fill="#063D7A"/>
<path id="Vector_102" d="M93.26,158.215c22.21,0 40.22,-2.768 40.22,-6.184c0,-3.415 -18.01,-6.183 -40.22,-6.183c-22.22,0 -40.23,2.768 -40.23,6.183c0,3.416 18.01,6.184 40.23,6.184z" fill="#9DC1EB" stroke="#063D7A" stroke-miterlimit="10"/>
<path id="Vector_103" d="M157.75,225.582c-1.35,1.498 -3.75,1.492 -5.62,0.905c-2.92,-0.899 -5.43,-2.82 -8.3,-3.831c-3.54,-1.248 -7.72,-1.198 -10.47,-3.744c-1.37,-1.375 -2.28,-3.148 -2.59,-5.067l-0.07,-0.425c-0.25,-2.059 -0.26,-4.139 -0.05,-6.202l6.84,-3.988c4.5,6.396 12.16,12.443 16.55,15.981c1.12,0.844 2.17,1.765 3.16,2.758c1.58,1.96 0.55,3.613 0.55,3.613z" fill="white"/>
<path id="Vector_104" d="M130.63,207.211c-0.22,2.063 -0.2,4.143 0.04,6.203c0.26,2.075 1.2,4.006 2.67,5.491c2.74,2.552 6.93,2.496 10.46,3.744c2.88,1.011 5.39,2.933 8.31,3.831c1.92,0.587 4.29,0.593 5.61,-0.905c0,0 1.03,-1.653 -0.57,-3.619c-1.61,-1.965 -13.58,-10.034 -19.71,-18.72z" stroke="#063D7A" stroke-miterlimit="10"/>
<path id="Vector_105" d="M74.81,126.179c0,0 -7.89,8.062 -7.17,17.777c0.71,9.716 13.31,14.028 21.62,17.354c5.17,2.117 9.95,5.092 14.13,8.798c0,0 -2.71,7.607 4.42,17.11c7.13,9.504 23.3,21.397 23.3,21.397c1.49,-0.015 2.94,-0.477 4.16,-1.324c1.22,-0.848 2.17,-2.043 2.7,-3.431c0,0 -15.6,-27.337 -19.45,-38.744c0,0 -0.71,-8.736 -4.31,-11.887c0,0 4.77,-5.092 4.73,-10.814c-0.05,-5.722 -5.37,-14.645 -11.61,-18.782l-0.46,1.429l-5.62,4.561c0,0 -12.79,1.011 -21.66,-6.352v-2.134l-0.71,0.886z" fill="#063D7A"/>
<path id="Vector_106" d="M112.36,150.59c0.67,0.842 1.3,1.723 1.87,2.639" stroke="white" stroke-linecap="round" stroke-linejoin="round"/>
<path id="Vector_107" d="M96.63,135.732c0,0 8.35,6.446 14.02,12.83" stroke="white" stroke-linecap="round" stroke-linejoin="round"/>
<path id="Vector_108" d="M103.39,141.405c0,0 2.96,-2.833 3.5,-5.673" stroke="white" stroke-linecap="round" stroke-linejoin="round"/>
<path id="Vector_109" d="M157.75,225.581c-1.35,1.497 -3.75,1.491 -5.62,0.904c-2.92,-0.898 -5.43,-2.82 -8.3,-3.831c-3.54,-1.248 -7.72,-1.198 -10.47,-3.744c-1.41,-1.31 -2.68,-4.237 -2.86,-7.775c1.66,1.705 3.57,3.147 5.67,4.274c2.12,1.111 4.37,2.421 6.47,3.57c2.16,1.279 4.54,2.138 7.02,2.533c0.73,0.08 1.47,-0.003 2.17,-0.243c1.77,-0.768 1.49,-1.953 1.54,-2.565c1.33,1.02 2.61,2.109 3.83,3.264c1.58,1.959 0.55,3.613 0.55,3.613z" fill="#063D7A"/>
<path id="Vector_110" d="M99.36,234.292c0,4.898 -1.47,9.984 -4.89,13.466c-0.57,0.669 -1.33,1.134 -2.19,1.323c-0.55,0.019 -1.11,-0.099 -1.61,-0.345c-0.5,-0.246 -0.93,-0.612 -1.26,-1.065c-1.37,-1.673 -1.79,-3.957 -1.7,-6.122c0.09,-2.165 0.62,-4.281 0.97,-6.421c0.13,-0.892 0.24,-1.784 0.31,-2.683c0.16,-2.142 0.11,-4.294 -0.14,-6.427c-0.27,-2.303 -0.78,-4.593 0.91,-6.353c1.29,-1.341 3.75,-3.357 5.62,-1.828c0.58,0.575 0.99,1.305 1.17,2.103c0.28,0.892 0.57,1.785 0.84,2.689c1.22,3.771 1.88,7.7 1.97,11.663z" fill="white"/>
<path id="Vector_111" d="M88.85,226.018c0.36,3.03 0.3,6.095 -0.17,9.11c-0.34,2.14 -0.88,4.256 -0.97,6.421c-0.09,2.165 0.33,4.449 1.7,6.122c0.33,0.453 0.76,0.819 1.26,1.065c0.5,0.246 1.06,0.364 1.61,0.345c0.86,-0.189 1.63,-0.654 2.19,-1.323c3.42,-3.507 4.88,-8.568 4.89,-13.466c0.01,-4.898 -1.32,-9.697 -2.84,-14.352c-0.18,-0.798 -0.58,-1.528 -1.17,-2.103c-1.87,-1.529 -4.3,0.487 -5.61,1.828c-1.67,1.76 -1.13,4.05 -0.89,6.353z" stroke="#063D7A" stroke-miterlimit="10"/>
<path id="Vector_112" d="M88.75,222.848c0,0 3.52,5.272 8.62,0c0,0 -0.71,-14.777 0.87,-22.421c1.58,-7.644 7.57,-31.561 -0.87,-39.823c-8.44,-8.262 -16.01,-0.531 -17.41,6.152c-1.4,6.683 2.99,25.672 5.62,34.464c2.62,8.792 3.17,21.628 3.17,21.628z" fill="#063D7A"/>
<path id="Vector_113" d="M100.1,164.873c0,0 -5.25,-13.784 -16.45,-5.81" stroke="white" stroke-linecap="round" stroke-linejoin="round"/>
<path id="Vector_114" d="M99.36,234.292c0,4.898 -1.47,9.984 -4.89,13.466c-0.57,0.669 -1.33,1.134 -2.19,1.323c-0.55,0.019 -1.11,-0.1 -1.61,-0.346c-0.5,-0.246 -0.93,-0.612 -1.26,-1.065c-1.37,-1.672 -1.79,-3.956 -1.7,-6.121c0.09,-2.166 0.62,-4.281 0.97,-6.421c0.13,-0.893 0.24,-1.785 0.31,-2.683c0.39,1.872 0.47,6.009 0.52,6.776c0.02,0.758 0.15,1.508 0.39,2.228c0.12,0.359 0.32,0.687 0.58,0.963c0.26,0.276 0.57,0.492 0.92,0.634c0.46,0.124 0.94,0.12 1.4,-0.012c0.46,-0.132 0.87,-0.387 1.19,-0.736c0.63,-0.708 1.1,-1.548 1.36,-2.459c1.69,-4.755 1.91,-9.891 1.84,-14.932c-0.04,-0.764 0.02,-1.529 0.17,-2.278c1.23,3.77 1.91,7.699 2,11.663z" fill="#063D7A"/>
<path id="Vector_115" d="M77.3,64.352c-0.59,1.361 -0.81,2.85 -0.65,4.323c0.16,1.472 0.69,2.879 1.56,4.083c2.98,4.249 12.16,8.23 17.47,5.971c5.31,-2.259 14.87,-2.14 19.25,0.624c4.38,2.765 20.85,0.868 20.85,-9.123c0,0 2.26,1.985 1.73,4.893c0,0 7.3,-6.459 -1.33,-16.05c0,0 2.44,-4.424 -2.7,-5.079c-5.14,-0.655 -5.62,-3.445 -6.11,-6.365c-0.49,-2.92 -0.37,-10.046 -6.76,-9.984c0,0 -10.32,-10.221 -21.84,-5.179c-11.52,5.042 -8.74,12.48 -14.16,11.425c-0.22,0.645 -0.22,1.346 0,1.991c0,0 1.73,3.981 -0.79,5.841c-2.52,1.859 -9.22,5.185 -9.56,14.352c0.3,-0.543 0.74,-0.992 1.27,-1.297c0.54,-0.304 1.15,-0.452 1.77,-0.426z" fill="#063D7A"/>
<path id="Vector_116" d="M94.14,74.299l1.95,-1.036v-4.798c0,0 3,5.497 6.4,6.078c3.41,0.58 7.36,-5.367 7.36,-5.367c0,0 -0.67,3.825 0,4.786c0.67,0.961 6.31,3.907 6.31,3.907c0,0 -8.66,8.143 -10.61,14.352c0,0 -0.62,-5.866 -4.67,-8.955c-3.09,-2.251 -5.43,-5.374 -6.74,-8.967z" fill="white"/>
<path id="Vector_117" d="M94.14,74.3c-2.28,0.675 -4.68,0.86 -7.04,0.543c-3.4,-0.624 -8.96,-2.634 -12.99,0.28c-4.03,2.915 -3.29,14.615 -3.75,17.891c-0.46,3.276 -0.84,6.47 -3.64,9.291c-2.8,2.82 -4.68,10.914 -3.94,13.903c0,0 -2.07,2.801 -0.57,7.999c1.51,5.198 2.71,4.231 2.71,4.231c0,0 6.17,0.243 9.36,-1.685c0,0 3.2,-2.596 4.26,-4.736c1.07,-2.14 -0.71,-5.809 -0.71,-5.809l1.77,1.872v5.21c0,0 6.68,4.874 13.53,5.834c8.11,0.518 7.85,0.506 7.85,0.506l5.74,-4.05c0,0 2.49,-7.769 4.87,-10.577c2.38,-2.808 7.96,-7.631 8.32,-10.483c0.35,-2.852 -0.86,-9.591 -0.86,-9.591c0,0 4.07,4.262 5.02,9.086c0.95,4.823 13.73,-4.93 13.73,-4.93c0,0 -3.78,-7.151 -4.77,-11.001c-0.99,-3.85 -2.49,-8.374 -6.2,-8.923c-3.71,-0.549 -10.98,-1.08 -10.98,-1.08c0,0 -8.02,7.488 -10.24,14.471c0,0 -0.85,-5.417 -4.75,-9.26c-3.91,-3.844 -6.6,-6.297 -6.72,-8.992z" fill="#9DC1EB"/>
<path id="Vector_118" opacity="0.6" d="M116.16,77.868c0,0 -8.64,8.355 -10.39,13.672c0,0 -2.18,-5.616 -5.49,-8.867c-3.32,-3.251 -4.95,-5.785 -6.14,-8.374l-1.58,0.543c0,0 -1.54,3.706 -1.79,5.441l4.49,2.402l-0.37,8.237c0,0 7.91,8.15 8.74,13.104l2.17,1.248c0,0 1.06,-6.171 0.55,-9.528c0,0 1.25,-1.673 4.32,-2.908c3.07,-1.236 5.16,-2.328 5.16,-2.328l-0.87,-5.291c2.25,-0.553 4.44,-1.353 6.51,-2.384l-3.9,-4.655z" fill="white"/>
<path id="Vector_119" opacity="0.2" d="M129.88,100.894c0,0 -2.5,-7.114 -12.56,-11.738l0.54,2.122l-2.54,-0.331c0,0 0.63,10.82 -3.06,14.352c-3.68,3.532 -17.84,0.68 -21.52,3.85l6.43,0.506c0,0 -5.55,1.522 -5.85,3.432c-0.29,1.909 7.64,0.917 10.82,2.408c0,0 0.74,9.36 -2.06,14.053l0.9,0.062l5.89,-4.549c0,0 3.55,-9.715 6.24,-11.974c2.68,-2.259 6.75,-6.022 6.69,-9.055c-0.07,-3.032 -0.57,-9.36 -0.57,-9.36c0,0 3.44,4.306 4.37,7.751c0.93,3.444 6.28,-1.529 6.28,-1.529z" fill="#021429"/>
<path id="Vector_120" d="M129.52,113.373c0,0 2.11,8.861 10.21,8.643c0,0 0.95,0.43 2.01,-2.003c1.06,-2.434 2.14,-4.942 1.13,-9.716c-1.01,-4.773 -4.34,-10.059 -4.34,-10.059l-9.69,5.454z" fill="white"/>
<g id="Vector_121">
<path d="M115.44,54.012c0,0 -0.62,-10.951 -8.74,-13.528c-8.11,-2.577 -15.16,3.744 -16.74,12.355c0,0 1.87,9.111 3.04,11.282c1.17,2.172 5.89,9.547 9.26,10.427c3.38,0.88 8.07,-5.759 9.94,-8.63c1.87,-2.87 3.21,-7.7 3.48,-11.906" fill="white"/>
<path d="M115.44,54.012c0,0 -0.62,-10.951 -8.74,-13.528c-8.11,-2.577 -15.16,3.744 -16.74,12.355c0,0 1.87,9.111 3.04,11.282c1.17,2.172 5.89,9.547 9.26,10.427c3.38,0.88 8.07,-5.759 9.94,-8.63c1.87,-2.87 3.21,-7.7 3.48,-11.906" stroke="#063D7A" stroke-miterlimit="10"/>
</g>
<path id="Vector_122" d="M102.12,65.981c0.18,0.316 0.42,0.604 0.68,0.855c0.95,0.879 1.25,-0.518 1.25,-1.248c-0.05,-1.748 0.25,-3.489 0.89,-5.117" stroke="#063D7A" stroke-linecap="round" stroke-linejoin="round"/>
<path id="Vector_123" d="M106.11,58.83c0.76,-1.154 2.67,-2.496 4.51,-1.248" stroke="#063D7A" stroke-linecap="round" stroke-linejoin="round"/>
<path id="Vector_124" d="M96.34,57.071c2.02,-1.248 4.42,-0.499 4.81,1.148" stroke="#063D7A" stroke-linecap="round" stroke-linejoin="round"/>
<path id="Vector_125" d="M107.95,61.856c-0.03,0.73 -0.32,1.31 -0.65,1.298c-0.33,-0.012 -0.58,-0.624 -0.55,-1.348c0.02,-0.724 0.32,-1.316 0.65,-1.304c0.33,0.013 0.55,0.612 0.55,1.354z" fill="#063D7A"/>
<path id="Vector_126" d="M99.57,61.651c-0.03,0.73 -0.33,1.311 -0.66,1.298c-0.33,-0.012 -0.58,-0.624 -0.55,-1.348c0.03,-0.724 0.33,-1.316 0.66,-1.304c0.33,0.013 0.58,0.618 0.55,1.354z" fill="#063D7A"/>
<path id="Vector_127" d="M114.22,61.774c0,0 0.67,0.362 2.26,-1.023c1.59,-1.385 2.95,-4.075 2.3,-5.198c-0.65,-1.123 -2.62,0.506 -2.62,0.506z" fill="white" stroke="#063D7A" stroke-miterlimit="10"/>
<path id="Vector_128" d="M90.14,54.537c0,0 -1.69,-1.017 -2.67,-0.205c-1.08,0.892 0.5,3.893 1.04,4.748c0.69,1.08 2.03,1.997 3.18,1.011z" fill="white" stroke="#063D7A" stroke-miterlimit="10"/>
<path id="Vector_129" d="M98.79,67.123c0.26,0.653 0.66,1.234 1.19,1.694c0.53,0.459 1.16,0.784 1.84,0.946" stroke="#063D7A" stroke-linecap="round" stroke-linejoin="round"/>
<path id="Vector_130" d="M110.23,68.676c-0.98,2.19 -0.93,4.118 -0.35,6.446" stroke="#063D7A" stroke-linecap="round" stroke-linejoin="round"/>
<path id="Vector_131" d="M95.88,68.465c0.19,1.39 0.25,2.792 0.21,4.193c0.06,0.93 -0.07,1.864 -0.39,2.739" stroke="#063D7A" stroke-linecap="round" stroke-linejoin="round"/>
<path id="Vector_132" d="M89.39,53.401c0,0 9.24,-0.368 11.37,-9.953c0,0 4.04,10.209 15.82,11.089c0,0 2.11,-7.257 0.92,-11.913c-1.19,-4.655 -6.99,-8.679 -14.78,-8.037c-7.78,0.643 -14.22,3.47 -13.33,18.814z" fill="#063D7A"/>
<path id="Vector_133" d="M79.61,118.067v5.21c0,0 9.27,7.058 21.67,6.353l5.42,-4.063c0,0 1.83,-6.832 5.53,-11.444c3.71,-4.611 8.3,-6.683 7.6,-12.442c-0.71,-5.76 -0.9,-7.701 -0.9,-7.701" stroke="#063D7A" stroke-linecap="round" stroke-linejoin="round"/>
<path id="Vector_134" d="M95.88,73.712c0,0 -5.3,2.053 -10.72,0.849c-5.42,-1.205 -9.17,-1.485 -12.23,1.572c-3.05,3.058 -1.38,19.344 -4.02,22.995c-2.64,3.65 -7.66,10.988 -6.13,17.097" stroke="#063D7A" stroke-linecap="round" stroke-linejoin="round"/>
<path id="Vector_135" d="M78.52,119.158c1.46,2.64 -1.57,4.992 -3.74,7.02c-2.17,2.028 -8.35,2.496 -10.26,2.147c-1.91,-0.349 -3.22,-7.032 -2.86,-9.179c0.35,-2.147 1.55,-4.175 3.34,-5.023c1.79,-0.849 3.12,-6.427 4.44,-7.189c1.32,-0.761 2.1,1.716 2.1,1.716" stroke="#063D7A" stroke-miterlimit="10"/>
<path id="Vector_136" d="M95.35,109.436l12.14,1.478c1.15,0.138 2.4,0.337 3.16,1.211" stroke="#063D7A" stroke-linecap="round" stroke-linejoin="round"/>
<path id="Vector_137" d="M81.46,100.007c0,0 0.73,-6.196 0,-9.085" stroke="#063D7A" stroke-linecap="round" stroke-linejoin="round"/>
<path id="Vector_138" d="M81.78,97.749c1.32,-1.323 2.4,-2.867 3.18,-4.561" stroke="#063D7A" stroke-linecap="round" stroke-linejoin="round"/>
<path id="Vector_139" d="M126.79,100.021c-0.81,-0.132 -1.58,-0.471 -2.22,-0.986c-0.64,-0.514 -1.14,-1.185 -1.44,-1.948c-0.31,-0.764 -0.41,-1.593 -0.31,-2.409c0.11,-0.815 0.43,-1.589 0.93,-2.245c0.62,-0.861 1.56,-1.491 2.17,-2.384c0.35,-0.531 0.57,-1.136 0.66,-1.768c0.08,-0.632 0.01,-1.274 -0.19,-1.877c-0.21,-0.603 -0.55,-1.15 -1,-1.6c-0.45,-0.45 -1,-0.79 -1.61,-0.995c1.2,-0.103 2.41,-0.09 3.6,0.038c2.46,0.355 3.95,2.071 3.44,4.655c-0.52,2.583 -3.55,2.926 -5.35,4.368c-0.46,0.329 -0.84,0.768 -1.09,1.277c-0.26,0.509 -0.39,1.073 -0.37,1.643c0.04,0.889 0.32,1.751 0.81,2.494c0.49,0.744 1.17,1.344 1.97,1.737z" fill="white" stroke="#063D7A" stroke-miterlimit="10"/>
<path id="Vector_140" d="M109.56,73.713c2.31,2.183 5.19,3.673 8.3,4.299c4.87,0.824 10.29,0.587 12.09,2.727c1.81,2.14 4.52,13.572 8.04,18.676c3.52,5.105 8.55,15.788 2.41,22.346c0,0 -6.64,2.171 -10.43,-6.864" stroke="#063D7A" stroke-linecap="round" stroke-linejoin="round"/>
<path id="Vector_141" d="M117.86,92.695c0,0 3.86,4.481 5.48,8.986" stroke="#063D7A" stroke-linecap="round" stroke-linejoin="round"/>
<path id="Vector_142" d="M126.05,114.123c1.7,-1.095 3.73,-1.573 5.75,-1.354c3.32,0.393 3.01,1.323 2.43,1.56c-0.58,0.237 -9.45,2.265 -9.75,1.741c-0.29,-0.525 1.57,-1.947 1.57,-1.947z" fill="white" stroke="#063D7A" stroke-miterlimit="10"/>
<path id="Vector_143" d="M94.14,74.299c0.28,2.939 2.73,5.117 4.88,7.145c1.79,1.587 3.33,3.427 4.59,5.46c3.25,5.653 2.53,12.661 1.72,19.131" stroke="#063D7A" stroke-linecap="round" stroke-linejoin="round"/>
<path id="Vector_144" d="M92.98,74.268c-1.05,1.732 -1.79,3.632 -2.19,5.616c-0.04,0.135 -0.04,0.282 0,0.418c0.08,0.115 0.19,0.205 0.31,0.255l4.18,2.147c-0.39,1.997 -0.54,4.032 -0.47,6.065c0,0.369 0.05,0.735 0.16,1.086c0.19,0.445 0.47,0.849 0.81,1.192c3.39,3.862 7.04,7.937 7.84,13.01" stroke="#063D7A" stroke-linecap="round" stroke-linejoin="round"/>
<path id="Vector_145" d="M116.56,77.637c-0.87,0.502 -1.66,1.133 -2.34,1.872c-3.63,3.645 -6.5,7.968 -8.45,12.723" stroke="#063D7A" stroke-linecap="round" stroke-linejoin="round"/>
<path id="Vector_146" d="M117.08,77.688c1.51,1.663 2.97,3.39 4.37,5.179c-1.94,1.319 -4.18,2.138 -6.51,2.383c0.29,1.598 0.58,3.195 0.87,4.786c0.05,0.166 0.05,0.341 0,0.506c-0.11,0.19 -0.28,0.334 -0.49,0.405c-3.09,1.504 -6.82,2.16 -8.99,4.83" stroke="#063D7A" stroke-linecap="round" stroke-linejoin="round"/>
<path id="Vector_147" d="M100.76,43.449c0,0 0.54,12.349 15.4,12.611" stroke="#063D7A" stroke-linecap="round" stroke-linejoin="round"/>
<path id="Vector_148" d="M133.47,100.008c0.96,2.454 1.51,5.045 1.65,7.675c0.1,3.887 -3.49,5.978 -6.03,6.44c-2.55,0.461 -5.66,0.318 -7.73,-2.29c-2.07,-2.609 -2.8,-8.169 -2.8,-8.169z" fill="white" stroke="#063D7A" stroke-miterlimit="10"/>
<path id="Vector_149" d="M136.84,99.109c-0.49,0.026 -0.98,0.153 -1.42,0.375c-2.3,0.969 -4.51,2.145 -6.59,3.513c-0.19,0.125 -0.4,0.281 -0.42,0.505c0,0.35 0.39,0.543 0.73,0.624c2.01,0.375 4.07,-0.068 6.05,-0.511c0.58,-0.102 1.14,-0.278 1.68,-0.524c1.66,-0.849 2.76,-3.944 -0.03,-3.982z" fill="white" stroke="#063D7A" stroke-miterlimit="10"/>
<path id="Vector_150" d="M137.97,103.665c-1.67,0.197 -3.33,0.535 -4.95,1.011c-0.52,0.098 -1.01,0.297 -1.44,0.586c-0.08,0.047 -0.15,0.112 -0.2,0.19c-0.05,0.078 -0.08,0.168 -0.08,0.26c0,0.224 0.22,0.368 0.42,0.461c0.72,0.283 1.47,0.457 2.24,0.518c1.87,0.237 4.13,0.537 5.75,-0.661c1.78,-1.298 -0.27,-2.471 -1.74,-2.365z" fill="white" stroke="#063D7A" stroke-miterlimit="10"/>
<path id="Vector_151" d="M133.09,107.758c-0.55,-0.004 -1.1,0.136 -1.58,0.405c-0.15,0.083 -0.27,0.209 -0.35,0.362c-0.05,0.164 -0.05,0.34 0,0.503c0.06,0.163 0.16,0.304 0.31,0.402c0.28,0.187 0.61,0.309 0.94,0.356l3.38,0.73c0.7,0.149 1.54,0.262 1.98,-0.437c0.14,-0.244 0.22,-0.523 0.22,-0.808c0,-0.285 -0.08,-0.564 -0.22,-0.808c-0.83,-1.017 -3.54,-0.78 -4.68,-0.705z" fill="white" stroke="#063D7A" stroke-miterlimit="10"/>
<path id="Vector_152" d="M65.55,113.648c-1.05,2.016 -1.16,4.369 -1.25,6.627" stroke="#063D7A" stroke-linecap="round" stroke-linejoin="round"/>
<path id="Vector_153" d="M66.29,114.99c0.02,2.332 0.72,4.608 2.02,6.546c1.3,1.938 3.13,3.452 5.28,4.356" stroke="#063D7A" stroke-linecap="round" stroke-linejoin="round"/>
<path id="Vector_154" d="M108.8,112.882c-3.34,-0.244 -6.74,-0.481 -10.01,0.212" stroke="#063D7A" stroke-linecap="round" stroke-linejoin="round"/>
<path id="Vector_155" d="M100.86,83.277l-12.22,0.462l2.41,22.296l11.4,-0.73z" fill="white" stroke="#063D7A" stroke-miterlimit="10"/>
<path id="Vector_156" d="M100.97,89.661l0.68,1.18l-3.48,6.364c1.87,-0.449 4.91,-3.793 5.41,-3.12c0.51,0.674 -8.11,9.167 -10.22,9.697c-1.51,0.302 -3.06,0.302 -4.57,0c-1.68,1.966 -11.06,17.354 -11.06,17.354c0,0 -9.58,-1.036 -7.69,-11.544c0,0 11.81,-9.622 15.27,-12.699c0,0 1.39,-5.385 3.54,-5.965l0.76,1.872c0,0 11.5,-5.26 11.85,-4.873c0.35,0.386 0,1.279 0,1.279c0,0 -6.42,5.903 -7.97,6.24" fill="white"/>
<path id="Vector_157" d="M100.97,89.661l0.68,1.18l-3.48,6.364c1.87,-0.449 4.91,-3.793 5.41,-3.12c0.51,0.674 -8.11,9.167 -10.22,9.697c-1.51,0.302 -3.06,0.302 -4.57,0c-1.68,1.966 -11.06,17.354 -11.06,17.354c0,0 -9.58,-1.036 -7.69,-11.544c0,0 11.81,-9.622 15.27,-12.699c0,0 1.39,-5.553 3.54,-5.965l0.76,1.872c0,0 11.5,-5.26 11.85,-4.873c0.35,0.386 0,1.279 0,1.279c0,0 -6.42,5.903 -7.97,6.24" stroke="#063D7A" stroke-miterlimit="10"/>
<path id="Vector_158" opacity="0.2" d="M101.24,41.096c1.49,1.693 3.17,3.218 4.99,4.549c0.82,0.54 1.68,1.031 2.56,1.472c2.88,1.468 5.89,2.675 8.99,3.607" stroke="white" stroke-width="0.75" stroke-linecap="round" stroke-linejoin="round"/>
<path id="Vector_159" opacity="0.2" d="M101.87,38.594c4.35,2.653 9.08,4.653 14.01,5.934" stroke="white" stroke-width="0.75" stroke-linecap="round" stroke-linejoin="round"/>
<path id="Vector_160" d="M96.34,69.088c0,0 1.76,7.881 5.78,8.599c4.02,0.717 7.22,-7.8 7.22,-7.8c0,0 -3.99,4.686 -6.5,4.648c-2.52,-0.037 -6.5,-5.447 -6.5,-5.447z" fill="#063D7A"/>
<path id="Vector_161" d="M91.44,87.321c0.51,0 0.93,-0.419 0.93,-0.936c0,-0.517 -0.42,-0.936 -0.93,-0.936c-0.52,0 -0.94,0.419 -0.94,0.936c0,0.517 0.42,0.936 0.94,0.936z" fill="white" stroke="#063D7A" stroke-miterlimit="10"/>
</g>
</g></svg>