<svg viewBox="0 0 23.9848 20.1977" fill="none" xmlns="http://www.w3.org/2000/svg" xmlns:xlink="http://www.w3.org/1999/xlink" x="0" y="0"><g id="Cwb6Ph.tif">
<path id="Vector_37" d="M4.1711,14.265c-0.09,-0.49 -0.208,-0.97 -0.271,-1.45c-0.252,-1.91 0.154,-3.67 1.281,-5.25c0.885,-1.23 2.094,-2.09 3.483,-2.69c1.669,-0.71 3.465,-1.1 5.278,-1.14c1.615,-0.04 3.023,0.55 4.25,1.57c1.263,1.04 2.238,2.34 2.986,3.79c0.361,0.71 0.695,1.43 1.038,2.15c0.036,0.08 0.063,0.17 0.081,0.26c-0.478,0.29 -0.938,0.59 -1.425,0.85c-1.805,1 -3.754,1.68 -5.784,2.03c-1.11,0.19 -2.228,0.3 -3.347,0.37c-1.065,0.07 -2.13,0.11 -3.194,0.08c-1.453,-0.04 -2.896,-0.26 -4.376,-0.57zM6.4631,9.425c-0.027,1.59 1.263,2.87 2.833,2.89c1.515,0.02 2.932,-1.15 2.932,-2.86c0,-1.77 -1.362,-2.89 -2.887,-2.89c-1.579,0 -2.869,1.27 -2.878,2.86zM17.5511,10.255c0.857,0.06 1.814,-0.65 1.823,-1.83c0.009,-0.97 -0.776,-1.77 -1.75,-1.78h-0.037c-0.992,-0.02 -1.804,0.78 -1.822,1.76v0.03c0,1.03 0.767,1.82 1.786,1.82z" fill="currentColor"/>
<path id="Vector_38" d="M22.3521,11.915c0.126,1.52 -0.253,2.86 -1.01,4.09c-1.029,1.66 -2.563,2.71 -4.367,3.37c-1.841,0.67 -3.799,0.93 -5.748,0.78c-1.164,-0.08 -2.337,-0.25 -3.383,-0.8c-1.805,-0.96 -2.923,-2.49 -3.51,-4.43c-0.027,-0.12 -0.036,-0.24 -0.045,-0.36c6.361,1.47 12.397,0.82 18.063,-2.65z" fill="currentColor"/>
<path id="Vector_39" d="M22.0541,6.395c0.469,-0.17 0.469,-0.18 0.424,-0.62c-0.027,-0.26 -0.036,-0.51 0.09,-0.75c0.054,-0.1 0.045,-0.23 0.054,-0.35c0.018,-0.36 0.316,-0.64 0.677,-0.64c0.361,0 0.668,0.29 0.686,0.65c0,0.36 -0.289,0.66 -0.65,0.68c-0.117,0.01 -0.235,0 -0.397,0c-0.018,0.18 -0.054,0.34 -0.036,0.5c0.054,0.44 -0.018,0.81 -0.523,1l1.028,1.82l-1.543,0.96c-0.649,-1.51 -1.642,-2.75 -2.833,-3.89l0.921,-1.12c0.857,0.4 1.497,1.05 2.102,1.76zM3.4851,11.985l-1.497,-0.5c-0.072,-0.91 0.117,-1.75 0.451,-2.57l-0.523,-0.83c-0.19,0 -0.379,0.04 -0.542,-0.01c-0.361,-0.08 -0.713,-0.19 -1.046,-0.33c-0.262,-0.1 -0.379,-0.47 -0.307,-0.73c0.099,-0.31 0.397,-0.51 0.722,-0.49c0.306,0.03 0.559,0.27 0.604,0.57c0.018,0.15 0,0.3 0,0.48h0.794c0.334,0.14 0.316,0.55 0.569,0.81c0.496,-0.65 0.983,-1.3 1.723,-1.77l0.686,0.54c-0.524,0.72 -1.083,1.4 -1.273,2.24c-0.189,0.85 -0.243,1.7 -0.361,2.59z" fill="currentColor"/>
<path id="Vector_40" d="M9.6211,4.365l-0.307,-0.76c0.848,-0.68 1.814,-0.96 2.833,-1.1c0.018,-0.27 -0.117,-0.39 -0.324,-0.49c-0.704,-0.37 -0.821,-1.22 -0.262,-1.73c0.334,-0.31 0.731,-0.35 1.128,-0.2c0.361,0.13 0.613,0.46 0.64,0.85c0.064,0.42 -0.135,0.82 -0.496,1.03c-0.099,0.05 -0.207,0.1 -0.307,0.15l0.109,0.34c0.911,-0.02 1.804,-0.01 2.688,0.34l-0.126,0.75c-1.868,0.01 -3.762,-0.09 -5.576,0.82z" fill="currentColor"/>
</g></svg>