<svg viewBox="0 0 24 24" fill="none" xmlns="http://www.w3.org/2000/svg" xmlns:xlink="http://www.w3.org/1999/xlink" x="0" y="0"><defs><clipPath id="clip4_1754_48118">
<rect width="24" height="24" fill="white" transform="translate(0, 0)"/>
</clipPath></defs><g id="Employers Logo_10" clip-path="url(#clip4_1754_48118)">
<path id="Vector_43" d="M8.002,12c0,-2.21 1.79,-4 3.999,-4c2.209,0 4,1.79 4,4c0,2.21 -1.791,4 -4,4c-2.209,0 -3.999,-1.79 -3.999,-4zM5.839,12c0,3.4 2.759,6.16 6.162,6.16c3.403,0 6.162,-2.76 6.162,-6.16c0,-3.4 -2.759,-6.16 -6.162,-6.16c-3.403,0 -6.162,2.76 -6.162,6.16zM16.967,5.59c0,0.29 0.084,0.57 0.242,0.8c0.158,0.24 0.383,0.43 0.646,0.53c0.263,0.11 0.553,0.14 0.832,0.09c0.279,-0.06 0.536,-0.2 0.738,-0.4c0.201,-0.2 0.338,-0.45 0.394,-0.73c0.056,-0.28 0.027,-0.57 -0.082,-0.84c-0.109,-0.26 -0.293,-0.48 -0.53,-0.64c-0.236,-0.16 -0.515,-0.25 -0.8,-0.25v0c-0.382,0 -0.748,0.16 -1.018,0.43c-0.27,0.27 -0.422,0.63 -0.422,1.01zM7.153,21.77c-1.17,-0.06 -1.806,-0.25 -2.228,-0.42c-0.561,-0.21 -0.96,-0.47 -1.381,-0.89c-0.42,-0.42 -0.68,-0.82 -0.897,-1.38c-0.165,-0.42 -0.36,-1.06 -0.413,-2.23c-0.058,-1.27 -0.07,-1.65 -0.07,-4.85c0,-3.2 0.013,-3.58 0.07,-4.85c0.053,-1.17 0.249,-1.8 0.413,-2.23c0.218,-0.56 0.478,-0.96 0.897,-1.38c0.42,-0.42 0.819,-0.68 1.381,-0.9c0.422,-0.16 1.058,-0.36 2.228,-0.41c1.265,-0.06 1.645,-0.07 4.848,-0.07c3.203,0 3.583,0.01 4.849,0.07c1.17,0.05 1.805,0.25 2.229,0.41c0.56,0.22 0.96,0.48 1.38,0.9c0.42,0.42 0.68,0.82 0.898,1.38c0.164,0.42 0.359,1.06 0.413,2.23c0.058,1.27 0.069,1.65 0.069,4.85c0,3.2 -0.011,3.58 -0.069,4.85c-0.054,1.17 -0.25,1.81 -0.413,2.23c-0.218,0.56 -0.478,0.96 -0.898,1.38c-0.42,0.42 -0.82,0.68 -1.38,0.89c-0.423,0.17 -1.059,0.36 -2.229,0.42c-1.264,0.06 -1.644,0.07 -4.849,0.07c-3.205,0 -3.584,-0.01 -4.848,-0.07zM7.054,0.07c-1.278,0.06 -2.151,0.26 -2.913,0.56c-0.79,0.31 -1.458,0.72 -2.126,1.38c-0.668,0.67 -1.078,1.34 -1.384,2.13c-0.297,0.76 -0.499,1.64 -0.557,2.91c-0.059,1.28 -0.073,1.69 -0.073,4.95c0,3.26 0.014,3.67 0.073,4.95c0.058,1.27 0.26,2.15 0.557,2.91c0.306,0.79 0.716,1.46 1.384,2.13c0.668,0.66 1.336,1.07 2.126,1.38c0.764,0.3 1.635,0.5 2.913,0.56c1.28,0.06 1.688,0.07 4.947,0.07c3.259,0 3.668,-0.01 4.947,-0.07c1.278,-0.06 2.15,-0.26 2.913,-0.56c0.789,-0.31 1.458,-0.72 2.126,-1.38c0.668,-0.67 1.077,-1.34 1.384,-2.13c0.297,-0.76 0.5,-1.64 0.557,-2.91c0.058,-1.28 0.072,-1.69 0.072,-4.95c0,-3.26 -0.014,-3.67 -0.072,-4.95c-0.058,-1.27 -0.26,-2.15 -0.557,-2.91c-0.307,-0.79 -0.717,-1.46 -1.384,-2.13c-0.667,-0.66 -1.337,-1.07 -2.125,-1.38c-0.764,-0.3 -1.636,-0.5 -2.913,-0.56c-1.279,-0.06 -1.688,-0.07 -4.947,-0.07c-3.259,0 -3.668,0.01 -4.948,0.07z" fill="currentColor"/>
<path id="Vector_44" d="M8.002,12c0,-2.21 1.79,-4 3.999,-4c2.209,0 4,1.79 4,4c0,2.21 -1.791,4 -4,4c-2.209,0 -3.999,-1.79 -3.999,-4zM5.839,12c0,3.4 2.759,6.16 6.162,6.16c3.403,0 6.162,-2.76 6.162,-6.16c0,-3.4 -2.759,-6.16 -6.162,-6.16c-3.403,0 -6.162,2.76 -6.162,6.16zM16.967,5.59c0,0.29 0.084,0.57 0.242,0.8c0.158,0.24 0.383,0.43 0.646,0.53c0.263,0.11 0.553,0.14 0.832,0.09c0.279,-0.06 0.536,-0.2 0.738,-0.4c0.201,-0.2 0.338,-0.45 0.394,-0.73c0.056,-0.28 0.027,-0.57 -0.082,-0.84c-0.109,-0.26 -0.293,-0.48 -0.53,-0.64c-0.236,-0.16 -0.515,-0.25 -0.8,-0.25v0c-0.382,0 -0.748,0.16 -1.018,0.43c-0.27,0.27 -0.422,0.63 -0.422,1.01zM7.153,21.77c-1.17,-0.06 -1.806,-0.25 -2.228,-0.42c-0.561,-0.21 -0.96,-0.47 -1.381,-0.89c-0.42,-0.42 -0.68,-0.82 -0.897,-1.38c-0.165,-0.42 -0.36,-1.06 -0.413,-2.23c-0.058,-1.27 -0.07,-1.65 -0.07,-4.85c0,-3.2 0.013,-3.58 0.07,-4.85c0.053,-1.17 0.249,-1.8 0.413,-2.23c0.218,-0.56 0.478,-0.96 0.897,-1.38c0.42,-0.42 0.819,-0.68 1.381,-0.9c0.422,-0.16 1.058,-0.36 2.228,-0.41c1.265,-0.06 1.645,-0.07 4.848,-0.07c3.203,0 3.583,0.01 4.849,0.07c1.17,0.05 1.805,0.25 2.229,0.41c0.56,0.22 0.96,0.48 1.38,0.9c0.42,0.42 0.68,0.82 0.898,1.38c0.164,0.42 0.359,1.06 0.413,2.23c0.058,1.27 0.069,1.65 0.069,4.85c0,3.2 -0.011,3.58 -0.069,4.85c-0.054,1.17 -0.25,1.81 -0.413,2.23c-0.218,0.56 -0.478,0.96 -0.898,1.38c-0.42,0.42 -0.82,0.68 -1.38,0.89c-0.423,0.17 -1.059,0.36 -2.229,0.42c-1.264,0.06 -1.644,0.07 -4.849,0.07c-3.205,0 -3.584,-0.01 -4.848,-0.07zM7.054,0.07c-1.278,0.06 -2.151,0.26 -2.913,0.56c-0.79,0.31 -1.458,0.72 -2.126,1.38c-0.668,0.67 -1.078,1.34 -1.384,2.13c-0.297,0.76 -0.499,1.64 -0.557,2.91c-0.059,1.28 -0.073,1.69 -0.073,4.95c0,3.26 0.014,3.67 0.073,4.95c0.058,1.27 0.26,2.15 0.557,2.91c0.306,0.79 0.716,1.46 1.384,2.13c0.668,0.66 1.336,1.07 2.126,1.38c0.764,0.3 1.635,0.5 2.913,0.56c1.28,0.06 1.688,0.07 4.947,0.07c3.259,0 3.668,-0.01 4.947,-0.07c1.278,-0.06 2.15,-0.26 2.913,-0.56c0.789,-0.31 1.458,-0.72 2.126,-1.38c0.668,-0.67 1.077,-1.34 1.384,-2.13c0.297,-0.76 0.5,-1.64 0.557,-2.91c0.058,-1.28 0.072,-1.69 0.072,-4.95c0,-3.26 -0.014,-3.67 -0.072,-4.95c-0.058,-1.27 -0.26,-2.15 -0.557,-2.91c-0.307,-0.79 -0.717,-1.46 -1.384,-2.13c-0.667,-0.66 -1.337,-1.07 -2.125,-1.38c-0.764,-0.3 -1.636,-0.5 -2.913,-0.56c-1.279,-0.06 -1.688,-0.07 -4.947,-0.07c-3.259,0 -3.668,0.01 -4.948,0.07z" fill="currentColor"/>
</g></svg>