<svg viewBox="0 0 23.623 16.7112" fill="none" xmlns="http://www.w3.org/2000/svg" xmlns:xlink="http://www.w3.org/1999/xlink" x="0" y="0"><path id="Vector_47" d="M18.2661,9.4964c-1.08,0 -2.1,-0.46 -3.03,-1.21l0.23,-1.05l0.01,-0.04c0.2,-1.12 0.84,-3.01 2.79,-3.01c1.47,0 2.67,1.19 2.67,2.66c-0.01,1.46 -1.2,2.65 -2.67,2.65zM18.2661,1.4964c-2.5,0 -4.44,1.62 -5.22,4.29c-1.21,-1.8 -2.12,-3.97 -2.65,-5.79h-2.69v6.99c0,1.38 -1.13,2.5 -2.51,2.5c-1.38,0 -2.5,-1.12 -2.5,-2.5v-6.99h-2.7v6.99c-0.01,2.86 2.33,5.21 5.2,5.21c2.86,0 5.2,-2.35 5.2,-5.21v-1.17c0.52,1.09 1.16,2.19 1.94,3.16l-1.65,7.73h2.76l1.19,-5.6c1.05,0.66 2.25,1.08 3.63,1.08c2.95,0 5.36,-2.41 5.36,-5.35c0,-2.94 -2.41,-5.34 -5.36,-5.34z" fill="currentColor"/></svg>